<?xml version="1.0" encoding="utf-8"?>
<!-- Generator: Adobe Illustrator 24.3.0, SVG Export Plug-In . SVG Version: 6.00 Build 0)  -->
<svg version="1.1" id="Layer_1" xmlns="http://www.w3.org/2000/svg" xmlns:xlink="http://www.w3.org/1999/xlink" x="0px" y="0px"
	 viewBox="0 0 72 72" style="enable-background:new 0 0 72 72;"  width="24" height="24" xml:space="preserve">
<style type="text/css">
	.st0{fill:#F0BC5E;}
</style>
<g>
	<path class="st0" d="M46.2,26v8.8H25.9V26c0-3,2.4-5.4,5.2-5.8c2.4,2.8,6.7,3,9.5,0.6c0.2-0.2,0.4-0.4,0.6-0.6
		C44,20.6,46.2,23.2,46.2,26z"/>
	<path id="Path_30" d="M63,42.6l-0.4,0.2c-1.3-1.7-3.9-2.4-5.8-1.5l0,0l-0.9,0.4c-2.2-1.7-5-1.9-7.3-0.6L44,43.4h-6
		c-1.3,0-2.6-0.2-3.9-0.9l-0.9-0.4c-4.7-2.4-10.6-1.7-14.9,1.5l0,0l-1.9,1.7c-0.9,0.6-1.7,1.1-2.6,1.5l-1.1-3.7
		c-0.2-0.4-0.4-0.6-0.9-0.6H2.2c-0.4,0-0.9,0.4-0.9,0.9c0,0,0,0,0,0.2l3.2,26.5C4.6,70.6,5,71,5.5,71h14.4c0.4,0,0.9-0.4,0.9-0.9
		v-0.2l-1.9-6.2l6-3.7c0.9-0.4,1.7-0.6,2.6-0.4l0,0l12.1,2.2c3.2,0.6,6.7,0.2,9.7-1.3c0,0,0,0,0.2,0L70.3,46
		c0.4-0.2,0.4-0.9,0.2-1.3C69,41.9,65.8,41.1,63,42.6z M57.6,42.8c1.1-0.4,2.6-0.2,3.4,0.6l-8,4.3L52.6,48c-0.2-0.6-0.6-1.3-1.1-1.9
		L57.6,42.8z M49.4,42.6L49.4,42.6c1.5-0.9,3.2-0.9,4.7,0L50,44.7c-0.9-0.6-1.7-0.9-2.6-1.1L49.4,42.6z M6.3,69.1l-3-24.8h8
		l7.5,24.8H6.3z M48.5,58.7c-2.6,1.3-5.6,1.7-8.4,1.1L28,57.6c-1.3-0.4-2.8-0.2-3.9,0.4l0,0l-5.6,3.4l-3.9-12.9
		c0.9-0.2,1.9-0.9,3-1.7l1.9-1.7c3.7-2.8,8.8-3.2,12.9-1.3l0.9,0.4c1.5,0.6,3,1.1,4.5,1.1h8c2.4,0,4.5,1.7,5,4.1L45,49.2
		c-2.2,0-4.3,0-6.5,0.2c-0.4,0-0.9,0.4-0.9,1.1c0,0.4,0.4,0.9,1.1,0.9l0,0c1.9-0.2,4.1-0.4,6-0.2l6.9,0.2l0,0c0.4,0,0.9-0.4,0.9-0.9
		c0-0.2,0-0.2,0-0.4l0.9-0.4l9.9-5.4c1.5-0.9,3.4-0.6,4.7,0.9L48.5,58.7z"/>
	<path id="Path_31" d="M11.9,62.6c-1.5,0-2.8,1.3-2.8,2.8c0,1.5,1.3,2.8,2.8,2.8s2.8-1.3,2.8-2.8S13.4,62.6,11.9,62.6z M11.9,66.5
		c-0.6,0-1.1-0.4-1.1-1.1c0-0.6,0.4-1.1,1.1-1.1s1.1,0.4,1.1,1.1C13,66,12.6,66.5,11.9,66.5z"/>
	<path class="st0" d="M13.4,65.4c0,0.9-0.6,1.5-1.5,1.5s-1.5-0.6-1.5-1.5s0.6-1.5,1.5-1.5C12.8,63.9,13.4,64.5,13.4,65.4z"/>
	<path id="Path_32" d="M36.3,1c-3.9-0.2-6.9,2.8-7.1,6.7c0,0.2,0,0.2,0,0.4v3C29,15,32,18,35.9,18.2s6.9-2.8,7.1-6.7V8.1
		C42.9,4.5,40.1,1.2,36.3,1z M41.2,11.1c0,2.8-2.4,5-5,5c-2.8,0-5.2-2.4-5.2-5v-3c0-2.8,2.4-5,5.2-5s5,2.4,5,5V11.1z"/>
	<path class="st0" d="M41.2,8.1v3c0,2.8-2.4,5-5,5c-2.8,0-5.2-2.4-5.2-5v-3c0-2.8,2.4-5,5.2-5C38.8,3.2,41.2,5.3,41.2,8.1z"/>
	<path id="Path_33" d="M57.8,20.2c-0.4,0-0.6,0.2-0.9,0.4c-1.5,1.7-4.1,2.2-5.8,0.6c-0.2-0.2-0.4-0.4-0.6-0.9
		C50.3,20.2,50,20,49.8,20c-1.1,0-2.4,0.4-3.2,1.1c-1.3-1.5-3.2-2.6-5.4-2.6c-0.4,0-0.6,0.2-0.9,0.6c-1.7,2.2-4.7,2.4-6.9,0.6
		c-0.2-0.2-0.6-0.6-0.9-0.9c-0.2-0.2-0.4-0.4-0.6-0.4c-1.9,0-3.9,0.9-5.2,2.4c-0.2,0.2-0.2,0.2-0.4,0.4c-0.9-0.6-1.9-0.9-3-1.1
		c-0.4,0-0.6,0.2-0.9,0.4c-1.5,1.7-4.1,2.2-5.8,0.6c-0.2-0.2-0.4-0.4-0.6-0.9c-0.2-0.2-0.4-0.4-0.9-0.4c-3.7,0-6.7,3-6.7,6.7v5.8
		c0,0.4,0.4,0.9,0.9,0.9h15.1v2.2c0,0.4,0.4,0.9,0.9,0.9h22.2c0.4,0,0.9-0.4,0.9-0.9v-2.2h15.1c0.4,0,0.9-0.4,0.9-0.9v-5.8
		C64,23.4,61.2,20.4,57.8,20.2z M24.2,26v5.8H9.8v-5c0-2.6,1.9-4.5,4.3-5c2.2,2.4,6,2.8,8.4,0.4c0.2-0.2,0.4-0.2,0.4-0.4
		c0.6,0,1.3,0.2,1.7,0.6C24.4,23.6,24.2,24.9,24.2,26z M46.2,34.8H25.9V26c0-3,2.4-5.4,5.2-5.8c2.4,2.8,6.7,3,9.5,0.6
		c0.2-0.2,0.4-0.4,0.6-0.6c2.8,0.4,5,2.8,5,5.8C46.2,26,46.2,34.8,46.2,34.8z M62.3,31.8H48.1V26c0-1.3-0.2-2.4-0.9-3.4
		c0.6-0.4,1.3-0.6,1.9-0.6c2.2,2.4,6,2.8,8.4,0.4c0.2-0.2,0.4-0.4,0.4-0.4c2.4,0.4,4.3,2.4,4.3,5L62.3,31.8L62.3,31.8z"/>
	<path id="Path_34" d="M59.5,13.9v-2.6c0-3.4-2.8-6-6-6c-3.4,0-6,2.8-6,6v2.6c0,3.4,2.8,6,6,6C56.9,20,59.5,17.2,59.5,13.9z
		 M49.2,13.9v-2.6C49.2,9,51.1,7,53.5,7s4.1,1.9,4.3,4.3v2.6c0,2.4-1.9,4.3-4.3,4.3C51.1,18,49.2,16.1,49.2,13.9z"/>
	<path id="Path_35" d="M24.6,13.9v-2.6c0-3.4-2.8-6-6-6c-3.4-0.2-6,2.6-6,6l0,0v2.6c0,3.4,2.8,6,6,6C22,20,24.6,17.2,24.6,13.9
		L24.6,13.9z M14.3,13.9v-2.6C14.3,9,16.2,7,18.6,7s4.1,1.9,4.3,4.3v2.6c0,2.4-1.9,4.3-4.3,4.3C16.2,18,14.3,16.1,14.3,13.9z"/>
</g>
</svg>
