<?xml version="1.0" encoding="utf-8"?>
<!-- Generator: Adobe Illustrator 24.3.0, SVG Export Plug-In . SVG Version: 6.00 Build 0)  -->
<svg version="1.1" id="Layer_1" xmlns="http://www.w3.org/2000/svg" xmlns:xlink="http://www.w3.org/1999/xlink" x="0px" y="0px"
	 viewBox="0 0 72 72" style="enable-background:new 0 0 72 72;" width="240" height="240" xml:space="preserve">
<style type="text/css">
	.st0{fill:none;stroke:#010101;stroke-width:2;stroke-miterlimit:10;}
	.st1{fill:#F0BC5E;stroke:#010101;stroke-width:2;stroke-miterlimit:10;}
</style>
<g>
	<g id="Rectangle_5">
		<path class="st0" d="M8.7,3.9h19.5c2.6,0,4.8,2.1,4.8,4.8v19.5c0,2.6-2.1,4.8-4.8,4.8H8.7c-2.6,0-4.8-2.1-4.8-4.8V8.7
			C3.9,6.1,6.1,3.9,8.7,3.9z"/>
	</g>
	<g id="Rectangle_5-2" transform="translate(15.405)">
		<path class="st1" d="M28.4,3.9h19.5c2.6,0,4.8,2.1,4.8,4.8v19.5c0,2.6-2.1,4.8-4.8,4.8H28.4c-2.6,0-4.8-2.1-4.8-4.8V8.7
			C23.7,6.1,25.8,3.9,28.4,3.9z"/>
	</g>
	<g id="Rectangle_5-3" transform="translate(0 15.405)">
		<path class="st0" d="M8.7,23.7h19.5c2.6,0,4.8,2.1,4.8,4.8v19.5c0,2.6-2.1,4.8-4.8,4.8H8.7c-2.6,0-4.8-2.1-4.8-4.8V28.4
			C3.9,25.8,6.1,23.7,8.7,23.7z"/>
	</g>
	<g id="Rectangle_5-4" transform="translate(15.405 15.405)">
		<path class="st0" d="M28.4,23.7h19.5c2.6,0,4.8,2.1,4.8,4.8v19.5c0,2.6-2.1,4.8-4.8,4.8H28.4c-2.6,0-4.8-2.1-4.8-4.8V28.4
			C23.7,25.8,25.8,23.7,28.4,23.7z"/>
	</g>
</g>
</svg>
