<?xml version="1.0" encoding="utf-8"?>
<!-- Generator: Adobe Illustrator 24.3.0, SVG Export Plug-In . SVG Version: 6.00 Build 0)  -->
<svg version="1.1" id="Layer_1" xmlns="http://www.w3.org/2000/svg" xmlns:xlink="http://www.w3.org/1999/xlink" x="0px" y="0px"
	 viewBox="0 0 72 72" style="enable-background:new 0 0 72 72;"  width="240" height="240" xml:space="preserve">
<style type="text/css">
	.st0{fill:#F0BC5E;}
</style>
<g>
	<rect x="27" y="57.8" class="st0" width="9" height="12.1"/>
	<g>
		<path d="M16.9,1v7.1H9.8V71h45.4v-7.1h7.1V1H16.9z M53.5,69.4H11.4V9.8h31.2v10.9h10.9V69.4z M44.2,19v-8.1l8.1,8.1H44.2z
			 M60.6,62.2h-5.5V19.5L43.7,8.1H18.5V2.6h42.1V62.2z"/>
		<polygon class="st0" points="52.3,19 44.2,19 44.2,10.9 		"/>
		<polygon class="st0" points="60.6,2.6 60.6,62.2 55.1,62.2 55.1,19.5 43.7,8.1 18.5,8.1 18.5,2.6 		"/>
		<path d="M18,16.9h11.5c0.5,0,0.8,0.4,0.8,0.8l0,0c0,0.5-0.4,0.8-0.8,0.8H18c-0.5,0-0.8-0.4-0.8-0.8l0,0
			C17.1,17.2,17.5,16.9,18,16.9z"/>
		<path d="M18,21.2h7.1c0.5,0,0.8,0.4,0.8,0.8l0,0c0,0.5-0.4,0.8-0.8,0.8H18c-0.5,0-0.8-0.4-0.8-0.8l0,0
			C17.1,21.6,17.5,21.2,18,21.2z"/>
		<path d="M18,27.8h29c0.5,0,0.8,0.4,0.8,0.8l0,0c0,0.5-0.4,0.8-0.8,0.8H18c-0.5,0-0.8-0.4-0.8-0.8l0,0C17.1,28.2,17.5,27.8,18,27.8
			z"/>
		<path d="M18,32.2h29c0.5,0,0.8,0.4,0.8,0.8l0,0c0,0.5-0.4,0.8-0.8,0.8H18c-0.5,0-0.8-0.4-0.8-0.8l0,0C17.1,32.5,17.5,32.2,18,32.2
			z"/>
		<path d="M18,40.9h29c0.5,0,0.8,0.4,0.8,0.8l0,0c0,0.5-0.4,0.8-0.8,0.8H18c-0.5,0-0.8-0.4-0.8-0.8l0,0C17.1,41.3,17.5,40.9,18,40.9
			z"/>
		<path d="M18,45.3h20.2c0.5,0,0.8,0.4,0.8,0.8l0,0c0,0.5-0.4,0.8-0.8,0.8H18c-0.5,0-0.8-0.4-0.8-0.8l0,0
			C17.1,45.7,17.5,45.3,18,45.3z"/>
		<path d="M18,36.5h29c0.5,0,0.8,0.4,0.8,0.8l0,0c0,0.5-0.4,0.8-0.8,0.8H18c-0.5,0-0.8-0.4-0.8-0.8l0,0C17.1,36.9,17.5,36.5,18,36.5
			z"/>
		<path d="M37.6,51.9h9.3c0.5,0,0.8,0.4,0.8,0.8l0,0c0,0.5-0.4,0.8-0.8,0.8h-9.3c-0.5,0-0.8-0.4-0.8-0.8l0,0
			C36.8,52.2,37.2,51.9,37.6,51.9z"/>
	</g>
</g>
</svg>
