<?xml version="1.0" encoding="utf-8"?>
<!-- Generator: Adobe Illustrator 24.3.0, SVG Export Plug-In . SVG Version: 6.00 Build 0)  -->
<svg version="1.1" id="Layer_1" xmlns="http://www.w3.org/2000/svg" xmlns:xlink="http://www.w3.org/1999/xlink" x="0px" y="0px"
	 viewBox="0 0 72 72" style="enable-background:new 0 0 72 72;"  width="240" height="240" xml:space="preserve">
<style type="text/css">
	.st0{fill:#F0BC5E;}
</style>
<g>
	<rect x="8.7" y="61.6" class="st0" width="11.8" height="8.8"/>
	<rect x="30.1" y="55.9" class="st0" width="11.8" height="14.5"/>
	<rect x="51.3" y="40.9" class="st0" width="11.8" height="29.5"/>
	<g>
		<g>
			<g>
				<path d="M67.8,68.3h-3V24.7c0-2-1.6-3.7-3.7-3.7h-6.7c-2,0-3.7,1.6-3.7,3.7v43.5h-7.6V44.5c0-2-1.6-3.7-3.7-3.7h-6.7
					c-2,0-3.7,1.6-3.7,3.7v23.8h-7.6V55.9c0-2-1.6-3.7-3.7-3.7H11c-2,0-3.7,1.6-3.7,3.7v12.3H4.2c-0.8,0-1.4,0.6-1.4,1.4
					S3.5,71,4.2,71h63.5c0.8,0,1.4-0.6,1.4-1.4S68.5,68.3,67.8,68.3z M18.7,68.3h-8.6V55.9c0-0.5,0.4-0.9,0.9-0.9h6.7
					c0.5,0,0.9,0.4,0.9,0.9L18.7,68.3L18.7,68.3z M40.4,68.3h-8.6V44.5c0-0.5,0.4-0.9,0.9-0.9h6.7c0.5,0,0.9,0.4,0.9,0.9L40.4,68.3
					L40.4,68.3z M62,68.3h-8.6V24.7c0-0.5,0.4-0.9,0.9-0.9H61c0.5,0,0.9,0.4,0.9,0.9L62,68.3L62,68.3z"/>
			</g>
		</g>
		<g>
			<g>
				<path d="M64.8,2.4c0-0.4-0.1-0.8-0.4-1c-0.3-0.3-0.7-0.4-1-0.4c0,0,0,0-0.1,0H55c-0.8,0-1.4,0.6-1.4,1.4s0.6,1.4,1.4,1.4h5.1
					L46.6,17.3l-5.1-5.1c-0.3-0.3-0.6-0.4-1-0.4s-0.7,0.1-1,0.4L15,36.7c-0.5,0.5-0.5,1.4,0,1.9c0.3,0.3,0.6,0.4,1,0.4
					s0.7-0.1,1-0.4L40.6,15l5.1,5.1c0.5,0.5,1.4,0.5,1.9,0L62,5.7v4.6c0,0.8,0.6,1.4,1.4,1.4s1.4-0.6,1.4-1.4V2.4
					C64.8,2.5,64.8,2.5,64.8,2.4z"/>
			</g>
		</g>
	</g>
</g>
</svg>
