<svg width="14" height="14" viewBox="0 0 14 14" fill="none" xmlns="http://www.w3.org/2000/svg">
<path fill-rule="evenodd" clip-rule="evenodd" d="M4.62502 8.58341H12.5417C12.7516 8.58341 12.953 8.66682 13.1015 8.81529C13.2499 8.96375 13.3334 9.16512 13.3334 9.37508C13.3334 9.58504 13.2499 9.78641 13.1015 9.93487C12.953 10.0833 12.7516 10.1667 12.5417 10.1667H4.62502C4.41506 10.1667 4.21369 10.0833 4.06523 9.93487C3.91676 9.78641 3.83335 9.58504 3.83335 9.37508C3.83335 9.16512 3.91676 8.96375 4.06523 8.81529C4.21369 8.66682 4.41506 8.58341 4.62502 8.58341ZM4.62502 11.7501H12.5417C12.7516 11.7501 12.953 11.8335 13.1015 11.982C13.2499 12.1304 13.3334 12.3318 13.3334 12.5417C13.3334 12.7517 13.2499 12.9531 13.1015 13.1015C12.953 13.25 12.7516 13.3334 12.5417 13.3334H4.62502C4.41506 13.3334 4.21369 13.25 4.06523 13.1015C3.91676 12.9531 3.83335 12.7517 3.83335 12.5417C3.83335 12.3318 3.91676 12.1304 4.06523 11.982C4.21369 11.8335 4.41506 11.7501 4.62502 11.7501ZM9.37502 5.41675H12.5417C12.7516 5.41675 12.953 5.50016 13.1015 5.64862C13.2499 5.79709 13.3334 5.99845 13.3334 6.20841C13.3334 6.41838 13.2499 6.61974 13.1015 6.76821C12.953 6.91667 12.7516 7.00008 12.5417 7.00008H9.37502C9.16506 7.00008 8.96369 6.91667 8.81523 6.76821C8.66676 6.61974 8.58335 6.41838 8.58335 6.20841C8.58335 5.99845 8.66676 5.79709 8.81523 5.64862C8.96369 5.50016 9.16506 5.41675 9.37502 5.41675ZM3.6299 6.932L0.666687 3.96958L1.7861 2.84937L3.6299 4.69316L7.65552 0.666748L8.77573 1.78616L3.6299 6.932Z" fill="white"/>
</svg>
