<?xml version="1.0" encoding="iso-8859-1"?>
<!-- Generator: Adobe Illustrator 19.0.0, SVG Export Plug-In . SVG Version: 6.00 Build 0)  -->
<svg version="1.1" id="Capa_1" xmlns="http://www.w3.org/2000/svg" xmlns:xlink="http://www.w3.org/1999/xlink" x="0px" y="0px"
	 viewBox="0 0 428.408 428.408" style="enable-background:new 0 0 428.408 428.408;" xml:space="preserve">
<g>
	<g>
		<circle style="fill:#00EFD1;" cx="94.041" cy="57.469" r="47.02"/>
		<circle style="fill:#00EFD1;" cx="94.041" cy="214.204" r="47.02"/>
		<circle style="fill:#00EFD1;" cx="94.041" cy="370.939" r="47.02"/>
	</g>
	<g>
		<path style="fill:#083863;" d="M94.041,271.673c-31.739,0-57.469-25.73-57.469-57.469s25.73-57.469,57.469-57.469
			s57.469,25.73,57.469,57.469S125.78,271.673,94.041,271.673z M94.041,177.633c-20.198,0-36.571,16.374-36.571,36.571
			s16.374,36.571,36.571,36.571s36.571-16.374,36.571-36.571S114.239,177.633,94.041,177.633z"/>
		<path style="fill:#083863;" d="M381.388,193.306H177.633c-5.771,0-10.449-4.678-10.449-10.449c0-5.771,4.678-10.449,10.449-10.449
			h203.755c5.771,0,10.449,4.678,10.449,10.449C391.837,188.628,387.159,193.306,381.388,193.306z"/>
		<path style="fill:#083863;" d="M287.347,256H177.633c-5.771,0-10.449-4.678-10.449-10.449c0-5.771,4.678-10.449,10.449-10.449
			h109.714c5.771,0,10.449,4.678,10.449,10.449C297.796,251.322,293.118,256,287.347,256z"/>
		<path style="fill:#083863;" d="M94.041,114.939c-31.739,0-57.469-25.73-57.469-57.469S62.301,0,94.041,0
			s57.469,25.73,57.469,57.469S125.78,114.939,94.041,114.939z M94.041,20.898c-20.198,0-36.571,16.374-36.571,36.571
			s16.374,36.571,36.571,36.571s36.571-16.374,36.571-36.571S114.239,20.898,94.041,20.898z"/>
		<path style="fill:#083863;" d="M381.388,36.571H177.633c-5.771,0-10.449-4.678-10.449-10.449s4.678-10.449,10.449-10.449h203.755
			c5.771,0,10.449,4.678,10.449,10.449S387.159,36.571,381.388,36.571z"/>
		<path style="fill:#083863;" d="M287.347,99.265H177.633c-5.771,0-10.449-4.678-10.449-10.449c0-5.771,4.678-10.449,10.449-10.449
			h109.714c5.771,0,10.449,4.678,10.449,10.449C297.796,94.587,293.118,99.265,287.347,99.265z"/>
		<path style="fill:#083863;" d="M94.041,428.408c-31.739,0-57.469-25.73-57.469-57.469s25.73-57.469,57.469-57.469
			s57.469,25.73,57.469,57.469S125.78,428.408,94.041,428.408z M94.041,334.367c-20.198,0-36.571,16.374-36.571,36.571
			c0,20.198,16.374,36.571,36.571,36.571s36.571-16.374,36.571-36.571C130.612,350.741,114.239,334.367,94.041,334.367z"/>
		<path style="fill:#083863;" d="M381.388,350.041H177.633c-5.771,0-10.449-4.678-10.449-10.449s4.678-10.449,10.449-10.449h203.755
			c5.771,0,10.449,4.678,10.449,10.449S387.159,350.041,381.388,350.041z"/>
		<path style="fill:#083863;" d="M287.347,412.735H177.633c-5.771,0-10.449-4.678-10.449-10.449s4.678-10.449,10.449-10.449h109.714
			c5.771,0,10.449,4.678,10.449,10.449S293.118,412.735,287.347,412.735z"/>
	</g>
</g>
<g>
</g>
<g>
</g>
<g>
</g>
<g>
</g>
<g>
</g>
<g>
</g>
<g>
</g>
<g>
</g>
<g>
</g>
<g>
</g>
<g>
</g>
<g>
</g>
<g>
</g>
<g>
</g>
<g>
</g>
</svg>
