<svg width="20" height="20" viewBox="0 0 20 20" fill="none" xmlns="http://www.w3.org/2000/svg">
<path d="M11.0401 9.58708C11.2705 9.46925 11.5272 9.40696 11.7935 9.40696C12.2348 9.40696 12.6497 9.57828 12.9624 9.88941L13.6357 9.21619C15.3019 9.80023 17.229 9.42633 18.5609 8.09443C19.6817 6.97369 20.1237 5.43171 19.8877 3.97822C19.8617 3.81815 19.7484 3.68613 19.5941 3.63632C19.4399 3.58645 19.2705 3.62697 19.1559 3.74167L18.1562 4.74136C17.3421 5.55548 16.0221 5.55548 15.2079 4.74136C14.3938 3.92725 14.3938 2.60722 15.2079 1.79311L16.2076 0.793408C16.3223 0.678715 16.3632 0.509369 16.3133 0.355035C16.2634 0.200632 16.1312 0.0875755 15.971 0.0615801C14.5176 -0.174357 12.9755 0.267633 11.8549 1.38837C10.5031 2.74013 10.1393 4.70459 10.761 6.38747L9.30078 7.84771L11.0401 9.58708Z" fill="#F9BA48"/>
<path d="M8.37901 12.2332L6.64701 10.5012L0.590627 16.5575C-0.196876 17.345 -0.196876 18.6217 0.590627 19.4092C1.37813 20.1967 2.65491 20.1967 3.44241 19.4092L8.66339 14.1883C8.13679 13.6589 8.04189 12.8597 8.37901 12.2332Z" fill="#F9BA48"/>
<path d="M12.2419 10.6162C12.1181 10.4923 11.9557 10.4304 11.7934 10.4304C11.6311 10.4304 11.4687 10.4923 11.3449 10.6162L10.9833 10.9777L4.543 4.53743L4.84403 4.2364C5.11831 3.96218 5.08426 3.5073 4.77164 3.27709L2.14399 1.34191C1.89147 1.15598 1.54105 1.18239 1.3193 1.40413L0.203615 2.51988C-0.0181304 2.74163 -0.0445352 3.09212 0.14139 3.34457L2.07651 5.97222C2.30672 6.28478 2.76133 6.31917 3.03582 6.04461L3.33684 5.74352L9.77715 12.1838L9.39015 12.5708C9.14241 12.8186 9.14241 13.2202 9.39015 13.4679L15.3315 19.4092C16.119 20.1967 17.3958 20.1967 18.1833 19.4092C18.9708 18.6217 18.9708 17.345 18.1833 16.5575L12.2419 10.6162Z" fill="#F9BA48"/>
</svg>
