<svg width="18" height="17" viewBox="0 0 18 17" fill="none" xmlns="http://www.w3.org/2000/svg">
<path fill-rule="evenodd" clip-rule="evenodd" d="M8.96112 10.3255H10.5067C10.7171 10.3255 10.91 10.5207 10.91 10.7257V16.9997H13.5979C14.6729 16.9997 15.2105 16.4656 15.2105 15.3976V10.7704L9.3417 4.98639C9.19426 4.79123 9.08342 4.70564 8.96103 4.72076L8.96112 10.3255ZM8.96112 3.40621V9.79471e-06C9.33149 -0.00136462 9.70701 0.141948 10.0142 0.403323L17.5851 7.96708C18.8687 9.24228 16.8834 11.2306 15.569 9.92524L8.98325 3.38408L8.96112 3.40621ZM8.62496 4.94155L2.71135 10.8596V15.3978C2.71135 16.4659 3.24915 17 4.32428 17H7.01219V10.7259C7.01219 10.525 7.2131 10.3257 7.41541 10.3257H8.96103L8.96115 4.72078C8.86416 4.73277 8.76012 4.80774 8.62489 4.94168L8.62496 4.94155ZM8.96112 9.79471e-06V3.40621L2.44301 9.92531C1.14699 11.2122 -0.891567 9.2766 0.42687 7.96728L7.99811 0.403515C8.27475 0.128632 8.61581 0.0015771 8.96125 0.000201698L8.96112 9.79471e-06Z" fill="#FBB200"/>
</svg>
