<svg width="26" height="20" viewBox="0 0 26 20" fill="none" xmlns="http://www.w3.org/2000/svg">
<path d="M12.5658 4.03735L3.60276 11.4264C3.60276 11.4369 3.60014 11.4522 3.5949 11.4731C3.58977 11.4939 3.58704 11.5089 3.58704 11.5196V19.0019C3.58704 19.272 3.6858 19.5062 3.88329 19.7033C4.08072 19.9006 4.31451 19.9998 4.58471 19.9998H10.5703V14.0139H14.5613V20.0001H20.5469C20.817 20.0001 21.0512 19.901 21.2483 19.7033C21.4458 19.5064 21.5449 19.2721 21.5449 19.0019V11.5196C21.5449 11.4782 21.5392 11.4468 21.5292 11.4264L12.5658 4.03735Z" fill="#F9BA48"/>
<path d="M24.9582 9.74279L21.5446 6.90574V0.545713C21.5446 0.400317 21.4978 0.280746 21.404 0.187164C21.311 0.0936913 21.1914 0.0469548 21.0457 0.0469548H18.0528C17.9073 0.0469548 17.7878 0.0936913 17.6941 0.187164C17.6007 0.280746 17.554 0.400372 17.554 0.545713V3.58538L13.7506 0.405286C13.4184 0.135077 13.0235 0 12.5661 0C12.1089 0 11.714 0.135077 11.3815 0.405286L0.173217 9.74279C0.0693159 9.82578 0.0123697 9.93749 0.00177759 10.0778C-0.00875991 10.218 0.0275481 10.3405 0.110811 10.4443L1.07726 11.5979C1.16052 11.6914 1.2695 11.7485 1.40463 11.7694C1.52939 11.7799 1.65414 11.7435 1.7789 11.6604L12.5658 2.66567L23.3528 11.6603C23.4361 11.7328 23.5451 11.769 23.6802 11.769H23.727C23.8619 11.7485 23.9707 11.6909 24.0544 11.5977L25.021 10.4443C25.1041 10.3402 25.1405 10.218 25.1297 10.0776C25.119 9.93766 25.0619 9.82595 24.9582 9.74279Z" fill="#F9BA48"/>
</svg>
