<svg width="14" height="10" viewBox="0 0 14 10" fill="none" xmlns="http://www.w3.org/2000/svg">
<path fill-rule="evenodd" clip-rule="evenodd" d="M14 4.9999C14 5.13251 13.9473 5.25968 13.8536 5.35345C13.7598 5.44722 13.6326 5.4999 13.5 5.4999L1.707 5.4999L4.854 8.6459C4.94789 8.73978 5.00063 8.86712 5.00063 8.9999C5.00063 9.13267 4.94789 9.26001 4.854 9.3539C4.76011 9.44778 4.63277 9.50053 4.5 9.50053C4.36722 9.50053 4.23989 9.44778 4.146 9.3539L0.146 5.3539C0.0994365 5.30745 0.0624941 5.25228 0.0372875 5.19153C0.0120809 5.13079 -0.000893792 5.06567 -0.00089379 4.9999C-0.000893787 4.93413 0.012081 4.86901 0.0372875 4.80827C0.0624941 4.74752 0.0994366 4.69234 0.146 4.6459L4.146 0.645899C4.23989 0.552012 4.36722 0.499267 4.5 0.499267C4.63278 0.499267 4.76011 0.552012 4.854 0.645899C4.94789 0.739785 5.00063 0.867123 5.00063 0.999899C5.00063 1.13267 4.94789 1.26001 4.854 1.3539L1.707 4.4999L13.5 4.4999C13.6326 4.4999 13.7598 4.55258 13.8536 4.64635C13.9473 4.74011 14 4.86729 14 4.9999Z" fill="#333029"/>
</svg>
