<svg width="9" height="12" viewBox="0 0 9 12" fill="none" xmlns="http://www.w3.org/2000/svg">
<path d="M1.53368 0.42272L2.16135 0.222054C2.74993 0.0342204 3.37876 0.338137 3.63076 0.93197L4.13243 2.11497C4.3506 2.63005 4.22926 3.23614 3.8326 3.61297L2.72718 4.6618C2.79543 5.28947 3.0066 5.90722 3.3601 6.51505C3.69579 7.10313 4.14606 7.61787 4.68426 8.0288L6.01193 7.58547C6.51476 7.41805 7.0631 7.61114 7.3711 8.06439L8.09035 9.12022C8.4491 9.64755 8.38435 10.3744 7.93926 10.8212L7.46268 11.3001C6.98785 11.7767 6.30943 11.95 5.68235 11.754C4.20068 11.292 2.83976 9.92055 1.59727 7.63972C0.353015 5.35539 -0.0862344 3.41639 0.280099 1.82505C0.434099 1.15539 0.910682 0.621637 1.53368 0.42272Z" fill="white"/>
</svg>
