<svg width="30" height="30" viewBox="0 0 30 30" fill="none" xmlns="http://www.w3.org/2000/svg">
<path d="M19.8383 17.0244C19.8383 19.6923 17.6679 21.8626 15 21.8626C12.3321 21.8626 10.1625 19.6923 10.1625 17.0244C10.1625 14.3564 12.3321 12.1861 15 12.1861C17.6679 12.1861 19.8383 14.3572 19.8383 17.0244ZM30 10.1542V23.8961C30 25.7281 28.5147 27.2134 26.6827 27.2134H3.3173C1.48532 27.2134 0 25.7281 0 23.8961V10.1542C0 8.32225 1.48532 6.83693 3.3173 6.83693H7.39758V5.68914C7.39758 4.08606 8.6963 2.7865 10.3002 2.7865H19.6998C21.3037 2.7865 22.6024 4.08606 22.6024 5.68914V6.8361H26.6827C28.5147 6.83693 30 8.32225 30 10.1542ZM22.3263 17.0244C22.3263 12.9847 19.0396 9.6981 15 9.6981C10.9612 9.6981 7.67457 12.9847 7.67457 17.0244C7.67457 21.064 10.9612 24.3506 15 24.3506C19.0396 24.3506 22.3263 21.064 22.3263 17.0244Z" fill="white"/>
</svg>
