<svg width="28" height="24" viewBox="0 0 28 24" fill="none" xmlns="http://www.w3.org/2000/svg">
<path d="M13.85 9.69231C14.9942 9.69231 15.9726 10.0986 16.7851 10.9111C17.5976 11.7236 18.0038 12.7019 18.0038 13.8462C18.0038 14.9904 17.5976 15.9688 16.7851 16.7812C15.9726 17.5938 14.9942 18 13.85 18C12.7058 18 11.7274 17.5938 10.9149 16.7812C10.1024 15.9688 9.69615 14.9904 9.69615 13.8462C9.69615 12.7019 10.1024 11.7236 10.9149 10.9111C11.7274 10.0986 12.7058 9.69231 13.85 9.69231ZM24.0038 3.69231C25.0231 3.69231 25.8933 4.05288 26.6144 4.77404C27.3356 5.49519 27.6962 6.36538 27.6962 7.38462V20.3077C27.6962 21.3269 27.3356 22.1971 26.6144 22.9183C25.8933 23.6394 25.0231 24 24.0038 24H3.69615C2.67692 24 1.80673 23.6394 1.08558 22.9183C0.364422 22.1971 0.00384521 21.3269 0.00384521 20.3077V7.38462C0.00384521 6.36538 0.364422 5.49519 1.08558 4.77404C1.80673 4.05288 2.67692 3.69231 3.69615 3.69231H6.92692L7.6625 1.73077C7.84519 1.25962 8.17933 0.853365 8.6649 0.512019C9.15048 0.170673 9.64808 0 10.1577 0H17.5423C18.0519 0 18.5495 0.170673 19.0351 0.512019C19.5207 0.853365 19.8548 1.25962 20.0375 1.73077L20.7731 3.69231H24.0038ZM13.85 20.3077C15.6288 20.3077 17.1505 19.6755 18.4149 18.4111C19.6793 17.1466 20.3115 15.625 20.3115 13.8462C20.3115 12.0673 19.6793 10.5457 18.4149 9.28125C17.1505 8.01683 15.6288 7.38462 13.85 7.38462C12.0712 7.38462 10.5495 8.01683 9.2851 9.28125C8.02067 10.5457 7.38846 12.0673 7.38846 13.8462C7.38846 15.625 8.02067 17.1466 9.2851 18.4111C10.5495 19.6755 12.0712 20.3077 13.85 20.3077Z" fill="#ffffff"/>
</svg>
