<svg width="14" height="20" viewBox="0 0 14 20" fill="none" xmlns="http://www.w3.org/2000/svg">
<path d="M12.8358 1.12214e-06L0.633523 5.53843e-08C0.28366 2.47983e-08 -2.47983e-08 0.28366 -5.53843e-08 0.633523L-1.693e-06 19.3657C-1.73938e-06 19.8962 0.616099 20.1922 1.03015 19.8597L2.32107 18.8232L3.31918 19.815C3.56075 20.0551 3.94886 20.0612 4.19788 19.8289L5.25487 18.8429L6.3005 19.827C6.54999 20.0618 6.94095 20.0557 7.18304 19.8132L8.12425 18.8705L9.06979 19.8141C9.31136 20.0551 9.70054 20.0615 9.94991 19.8284L11.0476 18.8024L12.4525 19.87C12.8687 20.1862 13.4694 19.8889 13.4694 19.3656L13.4694 0.633524C13.4693 0.283661 13.1857 1.15273e-06 12.8358 1.12214e-06V1.12214e-06ZM3.2788 9.50244L7.72153 9.50244C8.07139 9.50244 8.35505 9.7861 8.35505 10.136C8.35505 10.4858 8.07139 10.7695 7.72153 10.7695L3.2788 10.7695C2.92893 10.7695 2.64527 10.4858 2.64527 10.136C2.64527 9.7861 2.92893 9.50244 3.2788 9.50244ZM2.64527 7.15382C2.64527 6.80395 2.92893 6.52029 3.2788 6.52029L6.01747 6.52029C6.36734 6.52029 6.651 6.80395 6.651 7.15382C6.651 7.50368 6.36734 7.78734 6.01747 7.78734L3.2788 7.78734C2.92893 7.78734 2.64527 7.50372 2.64527 7.15382ZM9.1822 13.7516L3.2788 13.7516C2.92893 13.7516 2.64527 13.4679 2.64527 13.1181C2.64527 12.7682 2.92893 12.4846 3.2788 12.4846L9.1822 12.4846C9.53206 12.4846 9.81572 12.7682 9.81572 13.1181C9.81572 13.4679 9.53206 13.7516 9.1822 13.7516ZM10.0038 4.80523L3.2788 4.80523C2.92893 4.80523 2.64527 4.52157 2.64527 4.17171C2.64527 3.82184 2.92893 3.53818 3.2788 3.53818L10.0038 3.53819C10.3537 3.53819 10.6373 3.82185 10.6373 4.17171C10.6373 4.52157 10.3537 4.80523 10.0038 4.80523Z" fill="#161616"/>
</svg>
