<?xml version="1.0" encoding="UTF-8"?>
<svg xmlns="http://www.w3.org/2000/svg" xmlns:xlink="http://www.w3.org/1999/xlink" width="240pt" height="240pt" viewBox="0 0 240 240" version="1.1">
<g id="surface20683495">
<path style=" stroke:none;fill-rule:nonzero;fill:rgb(40%,40%,40%);fill-opacity:1;" d="M 179.296875 29.765625 C 171.445312 29.765625 163.59375 32.8125 157.5 38.90625 L 38.90625 157.5 L 38.4375 159.84375 L 30.234375 201.09375 L 27.890625 212.109375 L 38.90625 209.765625 L 80.15625 201.5625 L 82.5 201.09375 L 201.09375 82.5 C 213.28125 70.3125 213.28125 51.09375 201.09375 38.90625 C 195 32.8125 187.148438 29.765625 179.296875 29.765625 Z M 179.296875 44.0625 C 183.074219 44.0625 186.882812 45.792969 190.546875 49.453125 C 197.839844 56.75 197.839844 64.660156 190.546875 71.953125 L 185.15625 77.109375 L 162.890625 54.84375 L 168.046875 49.453125 C 171.707031 45.792969 175.519531 44.0625 179.296875 44.0625 Z M 152.34375 65.390625 L 174.609375 87.65625 L 83.90625 178.359375 C 78.984375 168.75 71.25 161.015625 61.640625 156.09375 Z M 52.03125 168.28125 C 61.023438 171.914062 68.085938 178.972656 71.71875 187.96875 L 47.109375 192.890625 Z M 52.03125 168.28125 "/>
</g>
</svg>
