<svg width="18" height="16" viewBox="0 0 18 16" fill="none" xmlns="http://www.w3.org/2000/svg">
<path d="M18 10C18 9.45 17.55 9 17 9H15V11H17C17.55 11 18 10.55 18 10ZM17 13H15V15H17C17.55 15 18 14.55 18 14C18 13.45 17.55 13 17 13ZM13 8H11C9.9 8 9 8.9 9 10H8C7.45 10 7 10.45 7 11V13C7 13.55 7.45 14 8 14H9C9 15.1 9.9 16 11 16H13C13.55 16 14 15.55 14 15V9C14 8.45 13.55 8 13 8ZM2 9C2 7.9 2.9 7 4 7H5.5C7.43 7 9 5.43 9 3.5C9 1.57 7.43 0 5.5 0H2C1.45 0 1 0.45 1 1C1 1.55 1.45 2 2 2H5.5C6.33 2 7 2.67 7 3.5C7 4.33 6.33 5 5.5 5H4C1.79 5 0 6.79 0 9C0 11.21 1.79 13 4 13H6V11H4C2.9 11 2 10.1 2 9Z" fill="url(#paint0_linear_627_2830)"/>
<defs>
<linearGradient id="paint0_linear_627_2830" x1="-12.1875" y1="27.3333" x2="15.3671" y2="-2.91868" gradientUnits="userSpaceOnUse">
<stop stop-color="#4C483D"/>
<stop offset="1" stop-color="#4C483D"/>
</linearGradient>
</defs>
</svg>
