<svg width="13" height="20" viewBox="0 0 13 20" fill="none" xmlns="http://www.w3.org/2000/svg">
<path d="M12.4303 7.7013C12.3938 7.63688 12.3409 7.58329 12.2769 7.54601C12.2129 7.50873 12.1402 7.48908 12.0662 7.48908H6.58271L7.50202 0.464925C7.51189 0.370918 7.48983 0.276326 7.4394 0.19638C7.38896 0.116434 7.3131 0.0557853 7.22401 0.0241997C7.13492 -0.00738599 7.03779 -0.00807098 6.94826 0.022255C6.85874 0.052581 6.78202 0.112153 6.73047 0.19138L0.0620039 11.8743C0.0230087 11.9377 0.00163633 12.0104 9.0278e-05 12.0848C-0.00145578 12.1593 0.0168804 12.2328 0.0532085 12.2977C0.0895366 12.3627 0.142542 12.4169 0.206758 12.4545C0.270975 12.4922 0.344079 12.5121 0.418533 12.5121H5.82005L5.0915 19.5468C5.08434 19.6405 5.10872 19.7339 5.16076 19.8121C5.21279 19.8903 5.28949 19.9489 5.37866 19.9785C5.46783 20.0082 5.56434 20.0071 5.65284 19.9755C5.74133 19.944 5.81673 19.8837 5.86703 19.8044L12.4253 8.12271C12.4633 8.05919 12.4838 7.98672 12.4847 7.91269C12.4856 7.83866 12.4668 7.76572 12.4303 7.7013Z" fill="#161616"/>
</svg>
