<svg xmlns="http://www.w3.org/2000/svg" viewBox="0 0 100 100" width="200px" height="200px">
    <path fill="#ee3e54" d="M13 27A2 2 0 1 0 13 31A2 2 0 1 0 13 27Z"/>
    <path fill="#f1bc19" d="M77 12A1 1 0 1 0 77 14A1 1 0 1 0 77 12Z"/>
    <path fill="#fce0a2" d="M50 13A37 37 0 1 0 50 87A37 37 0 1 0 50 13Z"/>
    <path fill="#f1bc19" d="M83 11A4 4 0 1 0 83 19A4 4 0 1 0 83 11Z"/>
    <path fill="#ee3e54" d="M87 22A2 2 0 1 0 87 26A2 2 0 1 0 87 22Z"/>
    <path fill="#fbcd59" d="M81 74A2 2 0 1 0 81 78 2 2 0 1 0 81 74zM15 59A4 4 0 1 0 15 67 4 4 0 1 0 15 59z"/>
    <path fill="#ee3e54" d="M25 85A2 2 0 1 0 25 89A2 2 0 1 0 25 85Z"/>
    <path fill="#fff" d="M18.5 51A2.5 2.5 0 1 0 18.5 56A2.5 2.5 0 1 0 18.5 51Z"/>
    <path fill="#f1bc19" d="M21 66A1 1 0 1 0 21 68A1 1 0 1 0 21 66Z"/>
    <path fill="#fff" d="M80 33A1 1 0 1 0 80 35A1 1 0 1 0 80 33Z"/>
    <g>
        <path fill="#00ac9c"
              d="M35,72.3c-4.025,0-7.3-3.274-7.3-7.3V35c0-4.025,3.274-7.3,7.3-7.3h30c4.025,0,7.3,3.274,7.3,7.3 v30c0,4.025-3.274,7.3-7.3,7.3H35z"/>
        <path fill="#472b29"
              d="M65,28.4c3.639,0,6.6,2.961,6.6,6.6v30c0,3.639-2.961,6.6-6.6,6.6H35c-3.639,0-6.6-2.961-6.6-6.6 V35c0-3.639,2.961-6.6,6.6-6.6H65 M65,27H35c-4.4,0-8,3.6-8,8v30c0,4.4,3.6,8,8,8h30c4.4,0,8-3.6,8-8V35C73,30.6,69.4,27,65,27 L65,27z"/>
    </g>
    <g>
        <path fill="#fefdef"
              d="M62.391,69H37.609C33.974,69,31,66.026,31,62.391V37.609C31,33.974,33.974,31,37.609,31h24.783 C66.026,31,69,33.974,69,37.609v24.783C69,66.026,66.026,69,62.391,69z"/>
    </g>
    <g>
        <path fill="#472b29"
              d="M68.5,47.375c-0.276,0-0.5-0.224-0.5-0.5V43c0-0.276,0.224-0.5,0.5-0.5S69,42.724,69,43v3.875 C69,47.151,68.776,47.375,68.5,47.375z"/>
    </g>
    <g>
        <path fill="#472b29"
              d="M68.5,40.5c-0.276,0-0.5-0.224-0.5-0.5v-2c0-0.276,0.224-0.5,0.5-0.5S69,37.724,69,38v2 C69,40.276,68.776,40.5,68.5,40.5z"/>
    </g>
    <g>
        <path fill="#472b29"
              d="M64,69H36c-2.757,0-5-2.243-5-5V36c0-2.757,2.243-5,5-5h25.375c0.276,0,0.5,0.224,0.5,0.5 s-0.224,0.5-0.5,0.5H36c-2.206,0-4,1.794-4,4v28c0,2.206,1.794,4,4,4h28c2.206,0,4-1.794,4-4V49.625c0-0.276,0.224-0.5,0.5-0.5 s0.5,0.224,0.5,0.5V64C69,66.757,66.757,69,64,69z"/>
    </g>
    <g>
        <path fill="#cbc9bc"
              d="M60.863,58.194l-17.949,1.733c-0.406,0.039-0.766-0.258-0.805-0.663l-1.596-16.531 c-0.039-0.406,0.258-0.766,0.663-0.805l17.949-1.733c0.406-0.039,0.766,0.258,0.805,0.663l1.596,16.531 C61.566,57.794,61.269,58.155,60.863,58.194z"/>
        <path fill="#472b29"
              d="M42.84,60.43c-0.286,0-0.561-0.099-0.784-0.283c-0.255-0.21-0.413-0.507-0.445-0.836 L40.015,42.78c-0.032-0.327,0.065-0.648,0.275-0.904c0.211-0.256,0.508-0.414,0.838-0.446l17.949-1.733 c0.688-0.062,1.284,0.435,1.352,1.113l1.595,16.531c0.032,0.328-0.065,0.65-0.276,0.905c-0.21,0.256-0.507,0.414-0.837,0.446 l-17.949,1.732C42.922,60.428,42.881,60.43,42.84,60.43z M59.197,40.691c-0.008,0-0.016,0-0.023,0.001l-17.949,1.733 c-0.085,0.008-0.138,0.057-0.161,0.085c-0.022,0.028-0.061,0.089-0.052,0.173l1.596,16.532c0.008,0.085,0.057,0.137,0.085,0.16 s0.093,0.062,0.174,0.053l17.949-1.732c0.085-0.008,0.138-0.057,0.161-0.085c0.022-0.028,0.061-0.089,0.052-0.174l-1.595-16.531 C59.422,40.784,59.317,40.691,59.197,40.691z"/>
        <path fill="#fdfcef"
              d="M60.469,55.786l-17.515,4.289c-0.396,0.097-0.795-0.145-0.892-0.541l-3.95-16.131 c-0.097-0.396,0.145-0.795,0.541-0.892l17.515-4.289c0.396-0.097,0.795,0.145,0.892,0.541l3.95,16.131 C61.107,55.289,60.865,55.689,60.469,55.786z"/>
        <path fill="#472b29"
              d="M42.776,60.596c-0.224,0-0.443-0.061-0.64-0.18c-0.282-0.172-0.481-0.443-0.56-0.764 l-3.95-16.132c-0.079-0.321-0.027-0.653,0.144-0.937c0.172-0.282,0.443-0.481,0.764-0.56l17.516-4.289 c0.323-0.079,0.654-0.028,0.937,0.144s0.481,0.443,0.56,0.764l3.95,16.131c0.162,0.664-0.245,1.335-0.907,1.497l-17.517,4.29 C42.974,60.585,42.875,60.596,42.776,60.596z M56.344,38.7c-0.018,0-0.037,0.002-0.057,0.007l-17.516,4.289 c-0.083,0.021-0.128,0.076-0.146,0.107c-0.02,0.032-0.048,0.097-0.028,0.18l3.95,16.132c0.021,0.083,0.076,0.128,0.107,0.146 c0.032,0.02,0.099,0.049,0.18,0.028L60.35,55.3c0.128-0.031,0.206-0.161,0.175-0.289l-3.95-16.13 c-0.021-0.083-0.076-0.128-0.107-0.146C56.443,38.72,56.4,38.7,56.344,38.7z"/>
        <g>
            <path fill="#c6dff1" d="M41.215 41.786H57.248000000000005V54.145H41.215z"
                  transform="rotate(-13.76 49.229 47.969)"/>
            <path fill="#472b29"
                  d="M42.752,56.144l-3.047-12.441l16.011-3.921l3.047,12.441L42.752,56.144z M40.25,44.033 l2.832,11.566l15.136-3.706l-2.832-11.566L40.25,44.033z"/>
            <path fill="#f1bc19" d="M45.153 44.017A1.336 1.336 0 1 0 45.153 46.689A1.336 1.336 0 1 0 45.153 44.017Z"/>
            <path fill="#472b29"
                  d="M45.157,46.913c-0.703,0-1.344-0.479-1.519-1.19c-0.204-0.836,0.311-1.683,1.146-1.888 c0.83-0.203,1.682,0.308,1.888,1.145c0.099,0.405,0.035,0.824-0.182,1.182c-0.216,0.356-0.558,0.607-0.963,0.707 C45.403,46.898,45.279,46.913,45.157,46.913z M45.156,44.24c-0.088,0-0.177,0.011-0.265,0.032 c-0.595,0.146-0.961,0.748-0.815,1.343c0.146,0.596,0.757,0.959,1.344,0.815c0.288-0.07,0.532-0.249,0.686-0.503 c0.154-0.254,0.2-0.553,0.129-0.841C46.11,44.58,45.655,44.24,45.156,44.24z"/>
            <path fill="#d5e27b"
                  d="M52.779,46.663l1.395-2.856c0.094-0.192,0.341-0.24,0.5-0.097l2.177,1.955l1.515,5.885"/>
            <path fill="#472b29"
                  d="M58.148,51.607l-1.498-5.818l-2.127-1.911c-0.031-0.027-0.068-0.024-0.081-0.023 c-0.018,0.004-0.048,0.015-0.066,0.052l-1.395,2.856l-0.404-0.197l1.395-2.856c0.076-0.155,0.216-0.263,0.384-0.296 c0.168-0.032,0.339,0.015,0.469,0.13l2.229,2.002l0.017,0.066l1.515,5.885L58.148,51.607z"/>
            <g>
                <path fill="#88ae45"
                      d="M46.125,55.086l3.811-10.316c0.077-0.207,0.342-0.274,0.508-0.129l7.921,6.91l0.124,0.507 L46.125,55.086z"/>
                <path fill="#472b29"
                      d="M45.768,55.406l3.957-10.714c0.062-0.167,0.203-0.292,0.377-0.336 c0.173-0.046,0.357-0.001,0.49,0.115l7.975,6.957l0.195,0.795L45.768,55.406z M50.238,44.789c-0.011,0-0.02,0.002-0.025,0.004 c-0.015,0.004-0.051,0.017-0.065,0.057l-3.664,9.918l11.734-2.874l-0.053-0.219l-7.867-6.863 C50.277,44.794,50.256,44.789,50.238,44.789z"/>
            </g>
            <g>
                <path fill="#6f913d"
                      d="M42.079,52.308l1.957-3.608c0.127-0.235,0.443-0.296,0.648-0.126l2.889,2.389l-1.446,4.123 l-3.208,0.786L42.079,52.308z"/>
                <path fill="#472b29"
                      d="M42.75,56.144l-0.909-3.868l0.04-0.075l1.956-3.607c0.094-0.172,0.259-0.291,0.452-0.328 c0.192-0.04,0.389,0.012,0.537,0.135l3.01,2.49l-1.538,4.386L42.75,56.144z M42.317,52.34l0.767,3.259l2.87-0.702l1.353-3.86 l-2.767-2.289c-0.045-0.037-0.104-0.056-0.166-0.041c-0.061,0.012-0.112,0.049-0.142,0.102L42.317,52.34z"/>
            </g>
        </g>
    </g>
</svg>
