<svg width="24" height="22" viewBox="0 0 24 22" fill="none" xmlns="http://www.w3.org/2000/svg">
<path d="M3.00305 0.5C2.2074 0.5 1.44434 0.816071 0.881731 1.37868C0.319122 1.94129 0.00305176 2.70435 0.00305176 3.5V18.5C0.00305176 19.2956 0.319122 20.0587 0.881731 20.6213C1.44434 21.1839 2.2074 21.5 3.00305 21.5H21.0031C21.7987 21.5 22.5618 21.1839 23.1244 20.6213C23.687 20.0587 24.0031 19.2956 24.0031 18.5V3.5C24.0031 2.70435 23.687 1.94129 23.1244 1.37868C22.5618 0.816071 21.7987 0.5 21.0031 0.5H3.00305ZM21.0031 2C21.4009 2 21.7824 2.15804 22.0637 2.43934C22.345 2.72064 22.5031 3.10218 22.5031 3.5V13.25L16.8376 10.3295C16.6969 10.259 16.5376 10.2346 16.3823 10.2596C16.227 10.2847 16.0835 10.3579 15.9721 10.469L10.4071 16.034L6.41705 13.376C6.27299 13.2801 6.10019 13.237 5.92796 13.2539C5.75572 13.2709 5.59465 13.3468 5.47205 13.469L1.50305 17V3.5C1.50305 3.10218 1.66109 2.72064 1.94239 2.43934C2.2237 2.15804 2.60523 2 3.00305 2H21.0031Z" fill="#C6C6C6"/>
</svg>
