<?xml version="1.0" encoding="UTF-8"?>
<svg xmlns="http://www.w3.org/2000/svg" xmlns:xlink="http://www.w3.org/1999/xlink" width="250pt" height="250pt"
     viewBox="0 0 250 250" version="1.1">
    <g id="surface20682392">
        <path style=" stroke:none;fill-rule:nonzero;fill:rgb(40%,40%,40%);fill-opacity:1;"
              d="M 125 0 C 114.003906 0 105 9.003906 105 20 C 105 22.578125 105.507812 25.078125 106.40625 27.34375 C 78.28125 34.648438 60 59.082031 60 90 C 60 129.160156 50.390625 146.992188 41.25 157.03125 C 36.679688 162.050781 32.167969 165.097656 28.28125 167.96875 C 26.328125 169.394531 24.550781 170.820312 22.96875 172.65625 C 21.386719 174.492188 20 177.109375 20 180 C 20 186.875 24.21875 192.714844 30.15625 196.5625 C 36.09375 200.410156 43.886719 202.890625 53.28125 204.84375 C 65.46875 207.363281 80.507812 208.691406 97.03125 209.375 C 95.78125 212.695312 95 216.269531 95 220 C 95 236.503906 108.496094 250 125 250 C 141.503906 250 155 236.503906 155 220 C 155 216.25 154.238281 212.675781 152.96875 209.375 C 169.492188 208.691406 184.53125 207.363281 196.71875 204.84375 C 206.113281 202.890625 213.90625 200.410156 219.84375 196.5625 C 225.78125 192.714844 230 186.875 230 180 C 230 177.109375 228.613281 174.492188 227.03125 172.65625 C 225.449219 170.820312 223.671875 169.394531 221.71875 167.96875 C 217.832031 165.097656 213.320312 162.050781 208.75 157.03125 C 199.609375 146.992188 190 129.160156 190 90 C 190 59.101562 171.679688 34.6875 143.59375 27.34375 C 144.492188 25.078125 145 22.578125 145 20 C 145 9.003906 135.996094 0 125 0 Z M 125 10 C 130.585938 10 135 14.414062 135 20 C 135 25.585938 130.585938 30 125 30 C 119.414062 30 115 25.585938 115 20 C 115 14.414062 119.414062 10 125 10 Z M 136.71875 35.9375 C 163.378906 40.683594 180 61.289062 180 90 C 180 130.839844 190.390625 151.816406 201.25 163.75 C 206.679688 169.707031 212.167969 173.4375 215.78125 176.09375 C 217.578125 177.421875 218.925781 178.535156 219.53125 179.21875 C 220.136719 179.902344 220 179.84375 220 180 C 220 183.125 218.554688 185.410156 214.375 188.125 C 210.195312 190.839844 203.398438 193.359375 194.6875 195.15625 C 177.265625 198.769531 152.460938 200 125 200 C 97.539062 200 72.734375 198.769531 55.3125 195.15625 C 46.601562 193.359375 39.804688 190.839844 35.625 188.125 C 31.445312 185.410156 30 183.125 30 180 C 30 179.84375 29.863281 179.902344 30.46875 179.21875 C 31.074219 178.535156 32.421875 177.421875 34.21875 176.09375 C 37.832031 173.4375 43.320312 169.707031 48.75 163.75 C 59.609375 151.816406 70 130.839844 70 90 C 70 61.308594 86.640625 40.859375 113.28125 36.09375 C 116.601562 38.535156 120.605469 40 125 40 C 129.433594 40 133.398438 38.417969 136.71875 35.9375 Z M 107.8125 209.6875 C 113.417969 209.804688 119.121094 210 125 210 C 130.878906 210 136.582031 209.804688 142.1875 209.6875 C 143.964844 212.695312 145 216.25 145 220 C 145 231.113281 136.113281 240 125 240 C 113.886719 240 105 231.113281 105 220 C 105 216.210938 105.996094 212.695312 107.8125 209.6875 Z M 107.8125 209.6875 "/>
    </g>
</svg>
