<?xml version="1.0" encoding="UTF-8"?>
<svg xmlns="http://www.w3.org/2000/svg" xmlns:xlink="http://www.w3.org/1999/xlink" width="24pt" height="24pt" viewBox="0 0 100 100" version="1.1">
<g id="surface12442202">
<path style=" stroke:none;fill-rule:nonzero;fill:rgb(17.647059%,20.392157%,21.176471%);fill-opacity:1;" d="M 32.625 6.0625 C 31.367188 6.109375 30.351562 6.414062 29.6875 6.6875 L 16.4375 11.125 C 15.101562 11.398438 13.804688 11.960938 12.75 12.875 C 11 14.398438 10 16.617188 10 18.9375 L 10 71.5 C 10 75.054688 12.398438 78.210938 15.8125 79.1875 L 39 85.8125 C 39.679688 84.632812 40.460938 83.398438 41.25 82.25 L 16.875 75.3125 C 15.164062 74.828125 14 73.273438 14 71.5 L 14 18.9375 C 14 17.78125 14.5 16.632812 15.375 15.875 C 15.929688 15.390625 16.601562 15.125 17.3125 15 C 17.335938 15 17.351562 15 17.375 15 C 17.796875 14.9375 18.1875 14.882812 18.5625 14.9375 L 62.5625 21.25 C 64.523438 21.53125 66 23.210938 66 25.1875 L 66 43.9375 L 68.3125 41.625 C 68.835938 41.101562 69.414062 40.664062 70 40.25 L 70 25.1875 C 70 21.226562 67.039062 17.867188 63.125 17.3125 L 26.375 12 L 31.0625 10.4375 C 32 10.0625 32.710938 9.960938 33.4375 10.0625 L 74.5625 15.1875 C 76.523438 15.46875 78 17.148438 78 19.125 L 78 37.875 C 79.359375 37.921875 80.710938 38.15625 82 38.625 L 82 19.125 C 82 15.164062 79.078125 11.8125 75.125 11.25 L 34 6.125 C 33.539062 6.0625 33.046875 6.046875 32.625 6.0625 Z M 87.9375 40 C 86.382812 40 84.859375 40.578125 83.6875 41.75 L 83 42.5 C 82.984375 42.492188 82.953125 42.507812 82.9375 42.5 C 81.289062 41.421875 79.40625 40.8125 77.5 40.8125 C 74.9375 40.8125 72.382812 41.804688 70.4375 43.75 L 59.875 54.375 C 59.28125 54.859375 59.007812 55.632812 59.179688 56.382812 C 59.351562 57.125 59.9375 57.710938 60.679688 57.882812 C 61.429688 58.054688 62.203125 57.78125 62.6875 57.1875 L 73.25 46.5625 C 75.039062 44.773438 77.507812 44.8125 79.6875 45.75 L 65.75 59.75 C 65.703125 59.789062 65.664062 59.828125 65.625 59.875 L 65.5625 59.9375 C 65.515625 59.976562 65.476562 60.015625 65.4375 60.0625 L 52.1875 73.3125 C 50.023438 75.476562 46.828125 79.453125 44.25 83.1875 C 42.960938 85.054688 41.84375 86.820312 41.0625 88.3125 C 40.671875 89.054688 40.382812 89.757812 40.1875 90.4375 C 40.085938 90.78125 39.992188 91.101562 40 91.5625 C 40.007812 92.023438 40.101562 92.726562 40.6875 93.3125 C 41.289062 93.914062 41.984375 94 42.4375 94 C 42.890625 94 43.289062 93.914062 43.625 93.8125 C 44.296875 93.609375 44.945312 93.328125 45.6875 92.9375 C 47.171875 92.15625 48.945312 91.039062 50.8125 89.75 C 54.554688 87.179688 58.515625 84.046875 60.6875 81.875 L 92.25 50.3125 C 94.59375 47.96875 94.59375 44.09375 92.25 41.75 C 91.078125 40.578125 89.492188 40 87.9375 40 Z M 87.9375 44 C 88.460938 44 88.96875 44.21875 89.375 44.625 C 90.195312 45.445312 90.195312 46.679688 89.375 47.5 L 75.875 61 L 73 58.125 L 84.5625 46.5625 C 84.65625 46.46875 84.742188 46.359375 84.8125 46.25 L 86.5 44.625 C 86.90625 44.21875 87.414062 44 87.9375 44 Z M 70.125 61 L 73 63.875 L 57.875 79 C 56.109375 80.765625 52.140625 83.976562 48.5625 86.4375 C 47.570312 87.117188 46.8125 87.523438 45.9375 88.0625 C 46.476562 87.195312 46.882812 86.421875 47.5625 85.4375 C 50.03125 81.867188 53.226562 77.898438 55 76.125 L 68.1875 62.9375 C 68.328125 62.828125 68.453125 62.703125 68.5625 62.5625 Z M 82 64.8125 L 78 68.8125 L 78 78 C 78 79.578125 77.070312 80.992188 75.5625 81.6875 L 70 84.4375 C 70.007812 84.296875 70 84.203125 70 84.0625 L 70 76.8125 L 66 80.8125 L 66 84.0625 C 66 84.695312 65.835938 85.265625 65.5625 85.8125 C 65.554688 85.828125 65.570312 85.859375 65.5625 85.875 C 65.429688 86.132812 65.25 86.398438 65.0625 86.625 C 64.828125 86.890625 64.492188 87.101562 64.1875 87.3125 C 64.109375 87.367188 64.070312 87.4375 64 87.5 C 63.070312 88.03125 61.929688 88.179688 60.875 87.875 L 59 87.375 C 57.726562 88.40625 56.375 89.40625 55.0625 90.375 L 59.8125 91.75 C 60.546875 91.960938 61.265625 92.0625 62 92.0625 C 63.492188 92.0625 64.960938 91.625 66.25 90.8125 L 77.3125 85.25 C 80.164062 83.953125 82 81.117188 82 78 Z M 82 64.8125 "/>
</g>
</svg>
