<svg width="15" height="16" viewBox="0 0 15 16" fill="none" xmlns="http://www.w3.org/2000/svg">
<path d="M7.25 0C6.55381 0 5.88613 0.280952 5.39384 0.781049C4.90156 1.28115 4.625 1.95942 4.625 2.66667C4.625 5.33333 9 8.88889 2 8.88889C1.53587 8.88889 1.09075 9.07619 0.762563 9.40959C0.434374 9.74299 0.25 10.1952 0.25 10.6667V12.4444H14.25V10.6667C14.25 10.1952 14.0656 9.74299 13.7374 9.40959C13.4092 9.07619 12.9641 8.88889 12.5 8.88889C5.5 8.88889 9.875 5.33333 9.875 2.66667C9.875 0.888889 8.7025 0 7.25 0ZM2 14.2222V16H12.5V14.2222H2Z" fill="#595959"/>
</svg>
