<svg width="29" height="26" viewBox="0 0 29 26" fill="none" xmlns="http://www.w3.org/2000/svg">
<path d="M7.38559 20.6818C5.49364 20.6818 3.81073 19.4705 3.19962 17.667L3.15829 17.5311C3.01417 17.0535 2.9538 16.6519 2.9538 16.25V8.19232L0.0867645 17.7627C-0.281975 19.1703 0.558292 20.6297 1.96811 21.0186L20.2426 25.9126C20.4706 25.9716 20.6987 26 20.9233 26C22.1003 26 23.1758 25.2188 23.4772 24.0676L24.5419 20.6818H7.38559Z" fill="white"/>
<path d="M10.6356 8.27283C11.9392 8.27283 12.9991 7.21271 12.9991 5.90914C12.9991 4.60557 11.9392 3.54544 10.6356 3.54544C9.33207 3.54544 8.27195 4.60557 8.27195 5.90914C8.27195 7.21271 9.33207 8.27283 10.6356 8.27283Z" fill="white"/>
<path d="M25.4081 0H7.68097C6.05259 0 4.72652 1.32608 4.72652 2.95467V15.9545C4.72652 17.5831 6.05259 18.9091 7.68097 18.9091H25.4081C27.0367 18.9091 28.3628 17.5831 28.3628 15.9545V2.95467C28.3628 1.32608 27.0367 0 25.4081 0ZM7.68097 2.3637H25.4081C25.7345 2.3637 25.9991 2.62835 25.9991 2.95467V11.3444L22.2659 6.98808C21.8699 6.5237 21.2966 6.27549 20.681 6.26142C20.0688 6.26489 19.4945 6.53668 19.1021 7.00712L14.7128 12.2755L13.2828 10.849C12.4746 10.0408 11.1591 10.0408 10.352 10.849L7.09021 14.1097V2.95467C7.09021 2.62835 7.35486 2.3637 7.68097 2.3637Z" fill="white"/>
</svg>
