<svg width="29" height="24" viewBox="0 0 29 24" fill="none" xmlns="http://www.w3.org/2000/svg">
<path d="M3.92336 0.646484C3.10119 0.646484 2.3127 0.983626 1.73133 1.58374C1.14997 2.18386 0.823364 2.99779 0.823364 3.84648V19.8465C0.823364 20.6952 1.14997 21.5091 1.73133 22.1092C2.3127 22.7093 3.10119 23.0465 3.92336 23.0465H25.6234C26.4455 23.0465 27.234 22.7093 27.8154 22.1092C28.3968 21.5091 28.7234 20.6952 28.7234 19.8465V3.84648C28.7234 2.99779 28.3968 2.18386 27.8154 1.58374C27.234 0.983626 26.4455 0.646484 25.6234 0.646484H3.92336ZM3.92336 18.2465L9.34836 11.0465L13.2234 15.8465L18.6484 8.64648L25.6234 18.2465H3.92336Z" fill="white"/>
</svg>
