<svg width="65" height="23" viewBox="0 0 65 23" fill="none" xmlns="http://www.w3.org/2000/svg">
<path fill-rule="evenodd" clip-rule="evenodd" d="M0 0C11.1121 0 15.7997 7.1954 19.774 13.2959C21.2441 15.5524 22.6166 17.6592 24.1805 19.1965C26.1975 21.5262 29.1766 23 32.5 23C36.9297 23 40.7478 20.3816 42.4912 16.6082C43.2366 15.5821 43.9683 14.4589 44.726 13.2959C48.7003 7.1954 53.3879 0 64.5 0H33.5H31H0Z" fill="#F9BA48"/>
<path d="M32.7731 10.1086L35.8882 13.1385C35.9603 13.2086 36 13.3022 36 13.4019C36 13.5016 35.9603 13.5952 35.8882 13.6653L35.6588 13.8884C35.5094 14.0336 35.2665 14.0336 35.1173 13.8884L32.5015 11.3441L29.8827 13.8912C29.8106 13.9613 29.7145 14 29.612 14C29.5094 14 29.4133 13.9613 29.3411 13.8912L29.1118 13.6681C29.0397 13.598 29 13.5045 29 13.4047C29 13.305 29.0397 13.2114 29.1118 13.1413L32.2297 10.1086C32.302 10.0384 32.3986 9.99978 32.5013 10C32.6043 9.99978 32.7009 10.0384 32.7731 10.1086Z" fill="#161616"/>
</svg>
