<?xml version="1.0"?>
<svg xmlns="http://www.w3.org/2000/svg" xmlns:xlink="http://www.w3.org/1999/xlink" xmlns:svgjs="http://svgjs.com/svgjs" version="1.1" width="512" height="512" x="0" y="0" viewBox="0 0 515.556 515.556" style="enable-background:new 0 0 512 512" xml:space="preserve" class=""><g><path xmlns="http://www.w3.org/2000/svg" d="m95.159 154.354c34.319-53.86 94.143-89.909 162.62-89.909 69.837 0 130.952 37.338 164.934 92.979l49.004-43.47c-46.3-68.736-124.832-113.954-213.939-113.954-142.367 0-257.778 115.412-257.778 257.778 0 29.363 5.147 57.467 14.19 83.759l130.81-115.981z" fill="#ffffff" data-original="#ffffff" style="" class=""/><path xmlns="http://www.w3.org/2000/svg" d="m501.366 174.019-130.81 115.981 49.842 71.202c-34.319 53.86-94.143 89.909-162.62 89.909-69.837 0-130.952-37.338-164.934-92.979l-49.004 43.47c46.3 68.736 124.832 113.954 213.939 113.954 142.367 0 257.778-115.411 257.778-257.778-.001-29.362-5.147-57.467-14.191-83.759z" fill="#ffffff" data-original="#ffffff" style="" class=""/></g></svg>
