<svg width="19" height="20" viewBox="0 0 19 20" fill="none" xmlns="http://www.w3.org/2000/svg">
<path d="M15.2344 6.32816V0.512109C14.7098 0.193047 14.1112 0 13.4766 0C12.8419 0 12.2433 0.193047 11.7188 0.512109V6.32816C12.2433 6.0091 12.8419 5.81605 13.4766 5.81605C14.1112 5.81605 14.7098 6.0091 15.2344 6.32816V6.32816Z" fill="#161616"/>
<path d="M8.20312 1.17188H10.5469V7.07031H8.20312V1.17188Z" fill="#161616"/>
<path d="M8.20312 8.24219H10.5469V12.9297H8.20312V8.24219Z" fill="#161616"/>
<path d="M7.03125 6.32816V0.512109C6.50668 0.193047 5.90809 0 5.27344 0C4.63879 0 4.0402 0.193047 3.51562 0.512109V6.32816C4.0402 6.0091 4.63879 5.81605 5.27344 5.81605C5.90809 5.81605 6.50668 6.0091 7.03125 6.32816V6.32816Z" fill="#161616"/>
<path d="M8.20312 14.1016H10.5469V20H8.20312V14.1016Z" fill="#161616"/>
<path d="M0 1.17188H2.34375V7.07031H0V1.17188Z" fill="#161616"/>
<path d="M16.4062 1.17188H18.75V7.07031H16.4062V1.17188Z" fill="#161616"/>
<path d="M16.4062 14.1016H18.75V20H16.4062V14.1016Z" fill="#161616"/>
<path d="M0 14.1016H2.34375V20H0V14.1016Z" fill="#161616"/>
<path d="M5.27344 18.7457C5.98047 18.7457 6.60711 19.0705 7.03125 19.6241V13.7257C6.60711 13.1721 5.98047 12.8473 5.27344 12.8473C4.56641 12.8473 3.93977 13.1721 3.51562 13.7257V19.6241C3.93977 19.0705 4.56641 18.7457 5.27344 18.7457Z" fill="#161616"/>
<path d="M13.4766 18.7457C14.1836 18.7457 14.8102 19.0705 15.2344 19.6241V13.7257C14.8102 13.1721 14.1836 12.8473 13.4766 12.8473C12.7695 12.8473 12.1429 13.1721 11.7188 13.7257V19.6241C12.1429 19.0705 12.7695 18.7457 13.4766 18.7457Z" fill="#161616"/>
<path d="M16.4062 8.24219H18.75V12.9297H16.4062V8.24219Z" fill="#161616"/>
<path d="M0 8.24219H2.34375V12.9297H0V8.24219Z" fill="#161616"/>
<path d="M7.03125 12.1875V7.86631C6.60711 7.31272 5.98047 6.98792 5.27344 6.98792C4.56641 6.98792 3.93977 7.31272 3.51562 7.86631V12.1875C4.0402 11.8685 4.63879 11.6754 5.27344 11.6754C5.90809 11.6754 6.50668 11.8685 7.03125 12.1875Z" fill="#161616"/>
<path d="M15.2344 12.1875V7.86631C14.8102 7.31272 14.1836 6.98792 13.4766 6.98792C12.7695 6.98792 12.1429 7.31272 11.7188 7.86631V12.1875C12.2433 11.8685 12.8419 11.6754 13.4766 11.6754C14.1112 11.6754 14.7098 11.8685 15.2344 12.1875Z" fill="#161616"/>
</svg>
