<svg width="32" height="30" viewBox="0 0 32 30" fill="none" xmlns="http://www.w3.org/2000/svg">
<path d="M25.6547 6.39844C25.6547 5.89363 25.2454 5.48438 24.7406 5.48438H6.45935C5.95454 5.48438 5.54529 5.89363 5.54529 6.39844V22.8513C5.54504 23.3519 5.95333 23.7657 6.45953 23.7656H24.7406C25.2501 23.7656 25.6549 23.348 25.6547 22.8513V6.39844ZM23.8265 7.3125V20.6448L18.0744 14.8927C17.7175 14.5357 17.1387 14.5357 16.7817 14.8927L13.7719 17.9026L12.59 16.7208C12.2331 16.3639 11.6543 16.3639 11.2974 16.7208L7.37341 20.6448V7.3125H23.8265ZM22.5339 21.9375H8.66608L11.9437 18.6599L13.1255 19.8417C13.4825 20.1986 14.0612 20.1986 14.4182 19.8417L17.4281 16.8317L22.5339 21.9375Z" fill="white"/>
<path d="M12.0352 17.3977L6.6727 22.6688L24.4969 23.1258L17.611 15.6914L13.8938 19.5L12.0352 17.3977Z" fill="white"/>
<path d="M11.9437 14.625C13.4558 14.625 14.6859 13.3949 14.6859 11.8828C14.6859 10.3708 13.4558 9.14062 11.9437 9.14062C10.4317 9.14062 9.20154 10.3708 9.20154 11.8828C9.20154 13.3949 10.4317 14.625 11.9437 14.625ZM11.9437 10.9688C12.4477 10.9688 12.8578 11.3788 12.8578 11.8828C12.8578 12.3868 12.4477 12.7969 11.9437 12.7969C11.4397 12.7969 11.0297 12.3868 11.0297 11.8828C11.0297 11.3788 11.4397 10.9688 11.9437 10.9688Z" fill="white"/>
<path d="M28.3969 7.3125H30.2859C30.7907 7.3125 31.2 6.90324 31.2 6.39844C31.2 5.89363 30.7907 5.48438 30.2859 5.48438H28.3969C27.892 5.48438 27.4828 5.89363 27.4828 6.39844C27.4828 6.90324 27.892 7.3125 28.3969 7.3125Z" fill="white"/>
<path d="M2.80312 5.48438H0.914062C0.409256 5.48438 0 5.89363 0 6.39844C0 6.90324 0.409256 7.3125 0.914062 7.3125H2.80312C3.30793 7.3125 3.71719 6.90324 3.71719 6.39844C3.71719 5.89363 3.30793 5.48438 2.80312 5.48438Z" fill="white"/>
<path d="M2.80312 21.9375H0.914062C0.409256 21.9375 0 22.3468 0 22.8516C0 23.3564 0.409256 23.7656 0.914062 23.7656H2.80312C3.30793 23.7656 3.71719 23.3564 3.71719 22.8516C3.71719 22.3468 3.30793 21.9375 2.80312 21.9375Z" fill="white"/>
<path d="M30.2859 21.9375H28.3969C27.892 21.9375 27.4828 22.3468 27.4828 22.8516C27.4828 23.3564 27.892 23.7656 28.3969 23.7656H30.2859C30.7907 23.7656 31.2 23.3564 31.2 22.8516C31.2 22.3468 30.7907 21.9375 30.2859 21.9375Z" fill="white"/>
<path d="M6.45935 25.5938C5.95454 25.5938 5.54529 26.003 5.54529 26.5078V28.3359C5.54529 28.8407 5.95454 29.25 6.45935 29.25C6.96416 29.25 7.37341 28.8407 7.37341 28.3359V26.5078C7.37341 26.003 6.96416 25.5938 6.45935 25.5938Z" fill="white"/>
<path d="M24.7406 25.5938C24.2358 25.5938 23.8265 26.003 23.8265 26.5078V28.3359C23.8265 28.8407 24.2358 29.25 24.7406 29.25C25.2454 29.25 25.6547 28.8407 25.6547 28.3359V26.5078C25.6547 26.003 25.2454 25.5938 24.7406 25.5938Z" fill="white"/>
<path d="M6.45935 3.65625C6.96416 3.65625 7.37341 3.24699 7.37341 2.74219V0.914062C7.37341 0.409256 6.96416 0 6.45935 0C5.95454 0 5.54529 0.409256 5.54529 0.914062V2.74219C5.54529 3.24699 5.95454 3.65625 6.45935 3.65625Z" fill="white"/>
<path d="M24.7406 3.65625C25.2454 3.65625 25.6547 3.24699 25.6547 2.74219V0.914062C25.6547 0.409256 25.2454 0 24.7406 0C24.2358 0 23.8265 0.409256 23.8265 0.914062V2.74219C23.8265 3.24699 24.2358 3.65625 24.7406 3.65625Z" fill="white"/>
</svg>
