<?xml version="1.0"?>
<svg xmlns="http://www.w3.org/2000/svg" id="Capa_1" enable-background="new 0 0 511.995 511.995" x="0px" y="0px" width="24" height="24" viewBox="0 0 511.995 511.995"><g><g><path d="m510.642 126.444c-.138-.676-.274-1.352-.41-1.971-12.866-61.23-60.748-109.116-122.06-122.011l-.683-.14c-.431-.089-.857-.177-1.285-.257-37.151-7.442-73.507 16.981-81.052 54.46-13.545 67.221-47.076 123.661-92.399 155.922-5.176-4.985-10.36-9.949-15.554-14.884-16.803-15.951-42.287-17.738-60.783-5.173-28.43-25.871-72.521-24.696-99.02 2.931-13.264 13.825-24.565 29.987-33.586 48.039-1.397 2.797-.913 6.168 1.215 8.458 2.274 2.446 4.549 4.883 6.824 7.32-2.646 3.579-5.19 7.293-7.581 11.126-6.789 10.905-5.365 25.1 3.462 34.518 63.792 68.105 130.662 134.975 198.751 198.751 5.443 5.102 12.479 7.732 19.557 7.731 5.17 0 10.362-1.404 14.969-4.271 3.83-2.389 7.545-4.934 11.125-7.58 2.438 2.277 4.875 4.558 7.316 6.828 1.419 1.32 3.253 2.008 5.109 2.008 1.14 0 2.287-.259 3.352-.792 18.041-9.02 34.203-20.319 48.037-33.584 27.63-26.5 28.801-70.591 2.925-99.018 12.57-18.496 10.787-43.98-5.163-60.783-4.466-4.701-8.957-9.394-13.465-14.08 29.739-41.735 80.98-74.089 141.634-89.201 4.018-1.001 6.466-5.071 5.464-9.09s-5.069-6.469-9.091-5.464c-63.001 15.696-116.586 49.288-148.596 92.814-21.64-22.286-43.69-44.354-65.97-66.016 47.266-34.701 82.102-93.717 96.173-163.549 5.917-29.39 34.376-48.553 63.438-42.706.033.006.066.013.1.019.351.066.701.139 1.055.212l.71.145c55.418 11.656 98.749 54.991 110.405 110.458.132.604.255 1.208.375 1.8 4.883 24.284-7.526 48.674-30.175 59.312-3.749 1.761-5.361 6.228-3.6 9.977 1.761 3.75 6.23 5.359 9.976 3.6 28.918-13.583 44.752-44.772 38.501-75.859zm-205.078 336.603c-11.563 11.087-24.921 20.698-39.761 28.617-65.674-61.208-130.47-124.995-192.648-189.65-2.871-2.986-7.618-3.079-10.605-.207-2.985 2.871-3.078 7.619-.207 10.604 57.761 60.06 117.773 119.364 178.65 176.567-2.572 1.83-5.215 3.599-7.919 5.286-5.146 3.206-11.865 2.516-16.337-1.675-67.852-63.555-134.489-130.192-198.06-198.061-4.19-4.471-4.879-11.187-1.678-16.329 1.687-2.705 3.456-5.348 5.285-7.919 6.486 6.9 12.943 13.726 19.315 20.416 2.859 2.999 7.606 3.115 10.603.257 2.999-2.857 3.114-7.604.258-10.603-10.8-11.335-21.835-23.051-32.857-34.883 7.92-14.85 17.531-28.206 28.619-39.761 21.155-22.059 56.601-22.689 79.011-1.404 61.096 58.038 121.564 118.51 179.725 179.735 21.291 22.409 20.665 57.852-1.394 79.01zm-2.733-138.645c10.251 10.798 12.074 26.745 5.357 39.183-52.137-54.572-106.031-108.469-160.5-160.51 12.438-6.713 28.384-4.887 39.182 5.364 39.461 37.496 78.477 76.512 115.961 115.963z" data-original="#000000" class="active-path" data-old_color="#000000" fill="#2D3436"/></g></g> </svg>
