<svg xmlns="http://www.w3.org/2000/svg" viewBox="0 0 40 40" width="240px" height="240px"><path fill="#4788c7" d="M33.5 24h-27C6.225 24 6 23.775 6 23.5l0 0C6 23.225 6.225 23 6.5 23h27c.275 0 .5.225.5.5l0 0C34 23.775 33.775 24 33.5 24zM21 7h-2V2c0-.552.448-1 1-1h0c.552 0 1 .448 1 1V7z"/><path fill="#dff0fe" d="M8.5 35.5L8.5 29.113 18.316 8.5 19.5 8.5 19.5 12.887 8.685 35.5z"/><path fill="#4788c7" d="M19,9v3.773L9,33.682v-4.456L18.631,9H19 M20,8h-2L8,29v7h1l11-23V8L20,8z"/><path fill="#dff0fe" d="M31.315 35.5L20.5 12.887 20.5 8.5 21.684 8.5 31.5 29.113 31.5 35.5z"/><path fill="#4788c7" d="M21.369,9L31,29.226v4.456L21,12.773V9H21.369 M22,8h-2v5l11,23h1v-7L22,8L22,8z"/><path fill="#98ccfd" d="M20 5.5A3.5 3.5 0 1 0 20 12.5A3.5 3.5 0 1 0 20 5.5Z"/><path fill="#4788c7" d="M20,6c1.654,0,3,1.346,3,3s-1.346,3-3,3s-3-1.346-3-3S18.346,6,20,6 M20,5c-2.209,0-4,1.791-4,4 s1.791,4,4,4s4-1.791,4-4S22.209,5,20,5L20,5z"/><path fill="#4788c7" d="M20 8A1 1 0 1 0 20 10 1 1 0 1 0 20 8zM8.5 34L8.5 34C8.775 34 9 34.225 9 34.5v4C9 38.775 8.775 39 8.5 39h0C8.225 39 8 38.775 8 38.5v-4C8 34.225 8.225 34 8.5 34zM31.5 34L31.5 34c.275 0 .5.225.5.5v4c0 .275-.225.5-.5.5l0 0c-.275 0-.5-.225-.5-.5v-4C31 34.225 31.225 34 31.5 34zM20 26L20 26c-.55 0-1-.45-1-1v-3c0-.55.45-1 1-1h0c.55 0 1 .45 1 1v3C21 25.55 20.55 26 20 26z"/></svg>