<?xml version="1.0" encoding="utf-8"?>
<!-- Generator: Adobe Illustrator 24.3.0, SVG Export Plug-In . SVG Version: 6.00 Build 0)  -->
<svg version="1.1" id="Layer_1" xmlns="http://www.w3.org/2000/svg" xmlns:xlink="http://www.w3.org/1999/xlink" x="0px" y="0px" width="24pt" height="24pt"
	 viewBox="0 0 72 72" style="enable-background:new 0 0 72 72;" xml:space="preserve">
<style type="text/css">
	.st0{fill:#F0BC5E;}
</style>
<g id="Group_30" transform="translate(0 0)">
	<path id="Path_29" d="M61.6,33.4c3.6-2.6,4.4-7.6,2-11.2c-2.6-3.6-7.6-4.4-11.2-2c-3.6,2.6-4.6,7.6-2,11.2c0.6,0.8,1.2,1.4,2,2
		C50.6,34,49,35,47.6,36.2c-2-1.6-4-2.8-6.4-3.6c4.8-3,6.4-9.2,3.4-14s-9.2-6.4-14-3.4c-4.8,2.8-6.4,9.2-3.4,13.8
		c0.8,1.4,2,2.6,3.4,3.4c-2.4,0.6-4.6,2-6.4,3.4c-1.4-1.2-3-2.2-4.6-2.6c3.6-2.6,4.4-7.6,2-11.2c-2.6-3.4-7.6-4.2-11.2-1.8
		c-3.6,2.6-4.4,7.6-2,11.2c0.6,0.8,1.2,1.4,2,2C4.8,35.4,1,40.6,1,46.6v1l0,0h17c0,0.8-0.2,1.6-0.2,2.4v1c0,4,3.4,7.4,7.4,7.4h21.4
		c4,0,7.4-3.2,7.4-7.4v-1c0-0.8,0-1.6-0.2-2.4H71l0,0v-1C71,40.6,67.2,35.4,61.6,33.4z M51.2,26.8c0-3.2,2.6-5.8,5.8-5.8
		s5.8,2.6,5.8,5.8s-2.6,5.8-5.6,5.8H57C53.6,32.6,51.2,30,51.2,26.8z M28,24c0-4.4,3.6-7.8,8-7.8s8,3.6,8,7.8s-3.2,7.6-7.4,8h-1
		C31.2,31.6,28,28.2,28,24z M9.2,26.8c0-3.2,2.6-5.8,5.8-5.8s5.8,2.6,5.8,5.8s-2.6,5.8-5.6,5.8h-0.4C11.8,32.6,9.2,30,9.2,26.8z
		 M18.4,45.4H3.2c0.6-6,5.6-10.6,11.6-10.6H15c2.8,0,5.4,1,7.6,2.8C20.6,39.8,19.2,42.4,18.4,45.4z M51.8,50.8
		c0,2.8-2.4,5.2-5.2,5.2H25.2c-2.8,0-5.2-2.4-5.2-5.2v-1c0-8.6,6.8-15.6,15.4-16c0.2,0,0.4,0,0.4,0c0.2,0,0.4,0,0.4,0
		c8.6,0.2,15.4,7.4,15.4,16v1H51.8z M53.4,45.4c-0.8-2.8-2.2-5.6-4.2-7.8c2.2-1.8,4.8-2.8,7.6-2.8H57c6,0,11,4.6,11.6,10.6H53.4z"/>
	<path class="st0" d="M51.8,50v1c0,2.8-2.4,5.2-5.2,5.2H25.2c-2.8,0-5.2-2.4-5.2-5.2v-1c0-8.6,6.8-15.6,15.4-16c0.2,0,0.4,0,0.4,0
		c0.2,0,0.4,0,0.4,0C45,34.4,51.8,41.4,51.8,50z"/>
	<path class="st0" d="M43.8,24c0,4.2-3.2,7.6-7.4,8h-1c-4.2-0.2-7.4-3.6-7.4-8s3.6-7.8,8-7.8C40.2,16,43.8,19.6,43.8,24z"/>
</g>
</svg>
