<svg id="permit" xmlns="http://www.w3.org/2000/svg" width="15.234" height="20" viewBox="0 0 15.234 20">
  <path id="Path_296" data-name="Path 296" d="M71.508,5.859a1.369,1.369,0,0,1-1.367-1.367V0H63.148A2.151,2.151,0,0,0,61,2.148v15.7A2.151,2.151,0,0,0,63.148,20H74.086a2.151,2.151,0,0,0,2.148-2.148V5.859Zm-7.3,8.2h2.841a.586.586,0,0,1,0,1.172H64.2a.586.586,0,0,1,0-1.172Zm-.586-2.539a.586.586,0,0,1,.586-.586H72.8a.586.586,0,0,1,0,1.172H64.2a.586.586,0,0,1-.583-.583ZM72.8,7.813a.586.586,0,0,1,0,1.172H64.2a.586.586,0,0,1,0-1.172Z" transform="translate(-61)" fill="#797979"/>
  <path id="Path_297" data-name="Path 297" d="M325,10.47a.2.2,0,0,0,.2.2h4.465a2.142,2.142,0,0,0-.411-.536l-3.766-3.563a2.154,2.154,0,0,0-.488-.35Z" transform="translate(-314.688 -5.978)" fill="#797979"/>
</svg>
