<svg id="PE_Stamp" data-name="PE Stamp" xmlns="http://www.w3.org/2000/svg" width="23.023" height="20.483" viewBox="0 0 23.023 20.483">
  <path id="Subtraction_6" data-name="Subtraction 6" d="M1.8,8.783A1.951,1.951,0,0,1,.2,8.225a1.027,1.027,0,0,1-.168-.893c.141-.548,1.59-4.861,2.032-5.961S2.682.279,3.514.279H9.777L10.965,0l6.788,4.05.006-.01,0-.007.008-.012.009-.015.01-.017.02-.03.016-.024c.115-.172.463-.694.626-.909.183-.244.033-.714,0-.806l-1.73-1.173.456-.712H17.2C17.88.3,18.474.28,18.913.28A3.108,3.108,0,0,1,19.7.336,28.768,28.768,0,0,1,21.29,4.7l.031.1.044.135c.287.887.516,1.588.626,1.859a1.555,1.555,0,0,1-.121,1.434.947.947,0,0,1-.8.449c-.7,0-17.376.051-19.13.1C1.9,8.783,1.851,8.783,1.8,8.783ZM2.951,6.219a.45.45,0,0,0,0,.9H17.1a.45.45,0,1,0,0-.9Zm.93-2.181a.45.45,0,1,0,0,.9h9.081a.45.45,0,1,0,0-.9Zm.661-2.181a.45.45,0,1,0,0,.9h5.78a.45.45,0,0,0,0-.9Z" transform="translate(0.403 11.313)" fill="#362d1e"/>
  <g id="stamp">
    <path id="Path_21" data-name="Path 21" d="M22.941,18.348,20.9,12.2a1.575,1.575,0,0,0-1.5-1.08h-1.1a.982.982,0,0,0-.026-.155.965.965,0,0,0-.447-.594l-.211-.125,1.054-1.667a4.008,4.008,0,0,1,2-1.6,3.617,3.617,0,0,0,1.824-1.537A3.607,3.607,0,1,0,15.82,4.125,3.909,3.909,0,0,1,15.4,6.6l-.969,1.758-.212-.125a.972.972,0,0,0-1.33.342l-.377.638-.953-.563a1.267,1.267,0,0,0-1.733.446l-.574.972a.449.449,0,0,0,.158.616l.738.436H3.623a1.575,1.575,0,0,0-1.5,1.08L.086,18.348a1.624,1.624,0,0,0,1.542,2.136H21.4a1.625,1.625,0,0,0,1.542-2.136ZM16.184,7.033a4.8,4.8,0,0,0,.526-3.038,2.708,2.708,0,1,1,5.011.989,2.678,2.678,0,0,1-1.369,1.153A4.9,4.9,0,0,0,17.915,8.1l-1.068,1.69-.082-.049L15.2,8.815Zm-2.9,2.637.377-.638a.072.072,0,0,1,.1-.025l1.808,1.069,1.2.708h0l.61.361a.072.072,0,0,1,.025.1l-.057.1h0l-.319.54ZM10.6,9.552a.366.366,0,0,1,.5-.129l1.34.792h0L14.7,11.549l3.6,2.126a.366.366,0,0,1,.129.5l-.346.585-6.058-3.58h0l-1.767-1.044Zm11.39,9.732a.718.718,0,0,1-.588.3H1.628a.725.725,0,0,1-.688-.954L2.98,12.482a.676.676,0,0,1,.643-.464h8.044l6.34,3.746a.432.432,0,0,0,.048.024l.015.006.038.013.014,0a.475.475,0,0,0,.052.011h.009l.044,0h.018l.035,0,.017,0a.418.418,0,0,0,.05-.01.449.449,0,0,0,.275-.207l.574-.972a1.256,1.256,0,0,0,.159-.849c-.006-.037-.014-.074-.023-.11a1.257,1.257,0,0,0-.582-.774l-.953-.563.189-.32H19.4a.677.677,0,0,1,.643.464l2.041,6.149h0a.718.718,0,0,1-.1.653Zm0,0" transform="translate(-0.001 -0.001)" fill="#362d1e"/>
    <path id="Path_22" data-name="Path 22" d="M442.3,40.927a.872.872,0,0,1,.5.562,1.228,1.228,0,0,1-.16.922.45.45,0,0,0,.75.5,2.134,2.134,0,0,0,.279-1.65,1.768,1.768,0,0,0-.962-1.134.45.45,0,0,0-.4.8Zm0,0" transform="translate(-422.17 -38.273)" fill="#362d1e"/>
    <path id="Path_23" data-name="Path 23" d="M412.014,29.8a.441.441,0,0,0,.041.077.446.446,0,0,0,.056.068.449.449,0,0,0,.146.1.466.466,0,0,0,.084.025.44.44,0,0,0,.088.009.435.435,0,0,0,.088-.009.451.451,0,0,0,.162-.067.457.457,0,0,0,.068-.056.437.437,0,0,0,.056-.068.457.457,0,0,0,.041-.077.473.473,0,0,0,.026-.084.455.455,0,0,0,.009-.088.447.447,0,0,0-.009-.088.457.457,0,0,0-.026-.084.446.446,0,0,0-.041-.078.441.441,0,0,0-.124-.124.45.45,0,0,0-.338-.067.467.467,0,0,0-.084.026.454.454,0,0,0-.077.041.42.42,0,0,0-.068.056.438.438,0,0,0-.056.068.431.431,0,0,0-.041.078.458.458,0,0,0-.026.084.446.446,0,0,0-.008.088.454.454,0,0,0,.008.088A.477.477,0,0,0,412.014,29.8Zm0,0" transform="translate(-393.454 -27.867)" fill="#362d1e"/>
  </g>
</svg>