<?xml version="1.0" encoding="UTF-8"?>
<svg xmlns="http://www.w3.org/2000/svg" xmlns:xlink="http://www.w3.org/1999/xlink" width="250pt" height="250pt"
     viewBox="0 0 250 250" version="1.1">
    <g id="surface20702207">
        <path style=" stroke:none;fill-rule:nonzero;fill:rgb(23.529412%,47.058824%,84.705882%);fill-opacity:1;"
              d="M 65 15 C 59.535156 15 55 19.535156 55 25 L 55 35 L 25 35 C 19.535156 35 15 39.535156 15 45 L 15 220 C 14.972656 221.804688 15.921875 223.480469 17.480469 224.390625 C 19.035156 225.296875 20.964844 225.296875 22.519531 224.390625 C 24.078125 223.480469 25.027344 221.804688 25 220 L 25 85 L 225 85 L 225 220 C 224.972656 221.804688 225.921875 223.480469 227.480469 224.390625 C 229.035156 225.296875 230.964844 225.296875 232.519531 224.390625 C 234.078125 223.480469 235.027344 221.804688 235 220 L 235 45 C 235 39.535156 230.464844 35 225 35 L 195 35 L 195 25 C 195 19.535156 190.464844 15 185 15 L 175 15 C 169.535156 15 165 19.535156 165 25 L 165 35 L 85 35 L 85 25 C 85 19.535156 80.464844 15 75 15 Z M 65 25 L 75 25 L 75 55 L 65 55 L 65 40.839844 C 65.089844 40.300781 65.089844 39.75 65 39.207031 Z M 175 25 L 185 25 L 185 39.160156 C 184.910156 39.699219 184.910156 40.25 185 40.792969 L 185 55 L 175 55 Z M 25 45 L 55 45 L 55 55 C 55 60.464844 59.535156 65 65 65 L 75 65 C 80.464844 65 85 60.464844 85 55 L 85 45 L 165 45 L 165 55 C 165 60.464844 169.535156 65 175 65 L 185 65 C 190.464844 65 195 60.464844 195 55 L 195 45 L 225 45 L 225 75 L 25 75 Z M 45 95 C 42.238281 95 40 97.238281 40 100 L 40 105 L 50 105 L 50 95 Z M 55 95 L 55 105 L 65 105 L 65 95 Z M 70 95 L 70 105 L 80 105 L 80 95 Z M 85 95 L 85 105 L 95 105 L 95 100 C 95 97.238281 92.761719 95 90 95 Z M 40 110 L 40 120 L 50 120 L 50 110 Z M 85 110 L 85 120 L 95 120 L 95 110 Z M 110 115 C 108.195312 114.972656 106.519531 115.921875 105.609375 117.480469 C 104.703125 119.035156 104.703125 120.964844 105.609375 122.519531 C 106.519531 124.078125 108.195312 125.027344 110 125 L 180 125 L 180 142.929688 L 173.535156 136.464844 C 172.59375 135.496094 171.300781 134.953125 169.953125 134.949219 C 167.917969 134.953125 166.085938 136.183594 165.320312 138.070312 C 164.554688 139.957031 165.007812 142.117188 166.464844 143.535156 L 181.464844 158.535156 C 183.417969 160.488281 186.582031 160.488281 188.535156 158.535156 L 203.535156 143.535156 C 204.839844 142.28125 205.367188 140.417969 204.910156 138.667969 C 204.453125 136.914062 203.085938 135.546875 201.332031 135.089844 C 199.582031 134.632812 197.71875 135.160156 196.464844 136.464844 L 190 142.929688 L 190 120 C 190 117.238281 187.761719 115 185 115 Z M 40 125 L 40 135 L 50 135 L 50 125 Z M 85 125 L 85 135 L 95 135 L 95 125 Z M 40 140 L 40 145 C 40 147.761719 42.238281 150 45 150 L 50 150 L 50 140 Z M 55 140 L 55 150 L 65 150 L 65 140 Z M 70 140 L 70 150 L 80 150 L 80 140 Z M 85 140 L 85 150 L 90 150 C 92.761719 150 95 147.761719 95 145 L 95 140 Z M 160 170 C 157.238281 170 155 172.238281 155 175 L 155 220 C 155 222.761719 157.238281 225 160 225 L 205 225 C 207.761719 225 210 222.761719 210 220 L 210 175 C 210 172.238281 207.761719 170 205 170 Z M 165 180 L 200 180 L 200 215 L 165 215 Z M 165 180 "/>
    </g>
</svg>
