<?xml version="1.0" encoding="UTF-8"?>
<svg xmlns="http://www.w3.org/2000/svg" xmlns:xlink="http://www.w3.org/1999/xlink" width="24pt" height="24pt" viewBox="0 0 50 50" version="1.1">
<g id="surface355983">
<path style=" stroke:none;fill-rule:nonzero;fill:rgb(17.647059%,20.392157%,21.176471%);fill-opacity:1;" d="M 24 0 C 23.445312 0 23 0.445312 23 1 L 23 3.4375 C 21.242188 4.214844 20 5.964844 20 8 C 20 8.355469 20.023438 8.699219 20.09375 9.03125 L 13.8125 26 L 8 26 C 7.96875 26 7.9375 26 7.90625 26 C 7.875 26 7.84375 26 7.8125 26 C 7.261719 26.050781 6.855469 26.542969 6.90625 27.09375 C 6.957031 27.644531 7.449219 28.050781 8 28 L 13.0625 28 L 8.3125 40.84375 C 8.238281 41.054688 8.238281 41.289062 8.3125 41.5 L 10 47.125 L 10 49 C 9.996094 49.359375 10.183594 49.695312 10.496094 49.878906 C 10.808594 50.058594 11.191406 50.058594 11.503906 49.878906 C 11.816406 49.695312 12.003906 49.359375 12 49 L 12 47.125 L 19.34375 28 L 23 28 L 23 31 C 23 31.554688 23.445312 32 24 32 L 26 32 C 26.554688 32 27 31.554688 27 31 L 27 28 L 30.65625 28 L 38 47.125 L 38 49 C 37.996094 49.359375 38.183594 49.695312 38.496094 49.878906 C 38.808594 50.058594 39.191406 50.058594 39.503906 49.878906 C 39.816406 49.695312 40.003906 49.359375 40 49 L 40 47.125 L 41.6875 41.5 C 41.761719 41.289062 41.761719 41.054688 41.6875 40.84375 L 36.9375 28 L 42 28 C 42.359375 28.003906 42.695312 27.816406 42.878906 27.503906 C 43.058594 27.191406 43.058594 26.808594 42.878906 26.496094 C 42.695312 26.183594 42.359375 25.996094 42 26 L 36.1875 26 L 29.90625 9.03125 C 29.976562 8.699219 30 8.355469 30 8 C 30 5.964844 28.757812 4.214844 27 3.4375 L 27 1 C 27 0.445312 26.554688 0 26 0 Z M 25 5 C 26.667969 5 28 6.332031 28 8 C 28 8.207031 27.976562 8.398438 27.9375 8.59375 C 27.886719 8.703125 27.855469 8.816406 27.84375 8.9375 C 27.515625 9.953125 26.65625 10.722656 25.59375 10.9375 C 25.53125 10.949219 25.46875 10.960938 25.40625 10.96875 C 25.269531 10.988281 25.140625 11 25 11 C 24.878906 11 24.773438 10.980469 24.65625 10.96875 C 24.582031 10.960938 24.511719 10.953125 24.4375 10.9375 C 24.425781 10.9375 24.417969 10.9375 24.40625 10.9375 C 24.386719 10.933594 24.363281 10.941406 24.34375 10.9375 C 23.308594 10.707031 22.480469 9.933594 22.15625 8.9375 C 22.148438 8.839844 22.128906 8.746094 22.09375 8.65625 C 22.089844 8.644531 22.066406 8.636719 22.0625 8.625 C 22.0625 8.613281 22.0625 8.605469 22.0625 8.59375 C 22.023438 8.398438 22 8.207031 22 8 C 22 6.332031 23.332031 5 25 5 Z M 21.375 11.40625 C 21.855469 11.917969 22.4375 12.320312 23.09375 12.59375 L 17.84375 26.28125 C 17.648438 26.480469 17.546875 26.753906 17.5625 27.03125 L 11.125 43.8125 L 10.3125 41.1875 L 15.40625 27.46875 C 15.453125 27.378906 15.484375 27.285156 15.5 27.1875 Z M 28.625 11.40625 L 34.4375 27 L 34.4375 27.03125 C 34.4375 27.050781 34.4375 27.074219 34.4375 27.09375 C 34.457031 27.289062 34.53125 27.472656 34.65625 27.625 L 39.6875 41.1875 L 38.875 43.8125 L 32.34375 26.78125 C 32.335938 26.738281 32.324219 26.695312 32.3125 26.65625 L 32.28125 26.59375 L 26.90625 12.59375 C 27.5625 12.320312 28.144531 11.917969 28.625 11.40625 Z M 25 13.21875 L 29.90625 26 L 27 26 L 27 23 C 27 22.445312 26.554688 22 26 22 L 24 22 C 23.445312 22 23 22.445312 23 23 L 23 26 L 20.09375 26 Z M 25 13.21875 "/>
</g>
</svg>
