<svg width="14" height="16" viewBox="0 0 14 16" fill="none" xmlns="http://www.w3.org/2000/svg">
<path d="M10.1111 11.9698C10.4352 11.9698 10.7105 11.8521 10.9371 11.6167C11.1642 11.3819 11.2778 11.0966 11.2778 10.7607C11.2778 10.4249 11.1642 10.1395 10.9371 9.90469C10.7105 9.66932 10.4352 9.55164 10.1111 9.55164C9.78704 9.55164 9.5117 9.66932 9.28511 9.90469C9.058 10.1395 8.94444 10.4249 8.94444 10.7607C8.94444 11.0966 9.058 11.3819 9.28511 11.6167C9.5117 11.8521 9.78704 11.9698 10.1111 11.9698ZM10.1111 14.3879C10.513 14.3879 10.8824 14.2904 11.2194 14.0953C11.5565 13.9008 11.8287 13.6423 12.0361 13.3199C11.7509 13.1453 11.4463 13.0109 11.1222 12.9169C10.7981 12.8228 10.4611 12.7758 10.1111 12.7758C9.76111 12.7758 9.42407 12.8228 9.1 12.9169C8.77593 13.0109 8.4713 13.1453 8.18611 13.3199C8.39352 13.6423 8.66574 13.9008 9.00278 14.0953C9.33982 14.2904 9.70926 14.3879 10.1111 14.3879ZM10.1111 16C9.03519 16 8.11819 15.6072 7.36011 14.8216C6.60152 14.0354 6.22222 13.0848 6.22222 11.9698C6.22222 10.8547 6.60152 9.90415 7.36011 9.11799C8.11819 8.33236 9.03519 7.93955 10.1111 7.93955C11.187 7.93955 12.1043 8.33236 12.8629 9.11799C13.621 9.90415 14 10.8547 14 11.9698C14 13.0848 13.621 14.0354 12.8629 14.8216C12.1043 15.6072 11.187 16 10.1111 16ZM6.22222 15.9395H6.03711C5.97904 15.9395 5.91759 15.9261 5.85278 15.8992C4.15463 15.3619 2.75463 14.2737 1.65278 12.6348C0.550926 10.9958 0 9.18892 0 7.21411V3.40554C0 3.06969 0.094111 2.76742 0.282333 2.49874C0.470037 2.23006 0.712963 2.03526 1.01111 1.91436L5.67778 0.100756C5.85926 0.0335852 6.04074 0 6.22222 0C6.4037 0 6.58519 0.0335852 6.76667 0.100756L11.4333 1.91436C11.7315 2.03526 11.9747 2.23006 12.1629 2.49874C12.3506 2.76742 12.4444 3.06969 12.4444 3.40554V6.87154C12.0685 6.69689 11.6895 6.56255 11.3073 6.46851C10.9247 6.37448 10.5259 6.32746 10.1111 6.32746C8.60741 6.32746 7.32407 6.87825 6.26111 7.97985C5.19815 9.08144 4.66667 10.4114 4.66667 11.9698C4.66667 12.7355 4.7963 13.451 5.05556 14.1163C5.31482 14.781 5.71019 15.3887 6.24167 15.9395H6.22222Z" fill="#2F2E2C"/>
</svg>
