<svg width="12" height="13" viewBox="0 0 12 13" fill="none" xmlns="http://www.w3.org/2000/svg">
<path d="M5.99986 0.740234C2.81806 0.740234 0.239258 3.31903 0.239258 6.50023C0.239179 7.25675 0.388128 8.00587 0.677597 8.70481C0.967066 9.40376 1.39139 10.0388 1.92632 10.5738C2.46126 11.1087 3.09633 11.533 3.79528 11.8225C4.49422 12.112 5.24334 12.2609 5.99986 12.2608C9.18046 12.2608 11.7599 9.68203 11.7599 6.50023C11.7599 3.31903 9.18046 0.740234 5.99986 0.740234ZM1.43926 6.50023C1.43943 5.63681 1.68473 4.79118 2.14663 4.06169C2.60853 3.3322 3.26804 2.74885 4.04847 2.37947C4.82889 2.01009 5.69815 1.86988 6.55514 1.97513C7.41212 2.08038 8.22161 2.42678 8.88946 2.97403L2.47306 9.39044C1.80341 8.57625 1.43791 7.55443 1.43926 6.50023ZM5.99926 11.0596C4.94548 11.0613 3.92401 10.696 3.11026 10.0264L9.52666 3.61063C10.0736 4.27858 10.4197 5.08806 10.5247 5.94497C10.6297 6.80187 10.4893 7.67097 10.1199 8.45122C9.75038 9.23147 9.167 9.89081 8.43756 10.3526C7.70811 10.8143 6.86257 11.0595 5.99926 11.0596Z" fill="white"/>
</svg>
