<svg width="13" height="18" viewBox="0 0 13 18" fill="none" xmlns="http://www.w3.org/2000/svg">
<path d="M2.47667 1.03267L3.37334 0.746C4.21417 0.477667 5.1125 0.911834 5.4725 1.76017L6.18917 3.45017C6.50084 4.186 6.3275 5.05183 5.76084 5.59017L4.18167 7.0885C4.27917 7.98517 4.58084 8.86767 5.08584 9.736C5.56539 10.5761 6.20864 11.3115 6.9775 11.8985L8.87417 11.2652C9.5925 11.026 10.3758 11.3018 10.8158 11.9493L11.8433 13.4577C12.3558 14.211 12.2633 15.2493 11.6275 15.8877L10.9467 16.5718C10.2683 17.2527 9.29917 17.5002 8.40334 17.2202C6.28667 16.5602 4.3425 14.601 2.5675 11.3427C0.790003 8.07933 0.162503 5.30933 0.685836 3.036C0.905836 2.07933 1.58667 1.31683 2.47667 1.03267Z" fill="#4C483D"/>
</svg>
