<svg width="11" height="11" viewBox="0 0 11 11" fill="none" xmlns="http://www.w3.org/2000/svg">
<path d="M5.50016 0.0839844C2.521 0.0839844 0.0834961 2.52148 0.0834961 5.50065C0.0834961 8.47982 2.521 10.9173 5.50016 10.9173C8.47933 10.9173 10.9168 8.47982 10.9168 5.50065C10.9168 2.52148 8.47933 0.0839844 5.50016 0.0839844ZM5.50016 9.83398C3.11141 9.83398 1.16683 7.8894 1.16683 5.50065C1.16683 3.1119 3.11141 1.16732 5.50016 1.16732C7.88891 1.16732 9.8335 3.1119 9.8335 5.50065C9.8335 7.8894 7.88891 9.83398 5.50016 9.83398ZM5.771 2.79232H4.9585V6.04232L7.77516 7.77565L8.2085 7.07148L5.771 5.60898V2.79232Z" fill="#2F2E2C"/>
</svg>
