<svg id="dashboard" xmlns="http://www.w3.org/2000/svg" width="24" height="24" viewBox="0 0 24 24">
  <path id="Path_298" data-name="Path 298" d="M10.021,0H1.9A1.9,1.9,0,0,0,0,1.9V6.771a1.9,1.9,0,0,0,1.9,1.9h8.125a1.9,1.9,0,0,0,1.9-1.9V1.9A1.9,1.9,0,0,0,10.021,0Zm0,0" fill="#595959"/>
  <path id="Path_299" data-name="Path 299" d="M10.021,213.332H1.9a1.9,1.9,0,0,0-1.9,1.9V226.6a1.9,1.9,0,0,0,1.9,1.9h8.125a1.9,1.9,0,0,0,1.9-1.9V215.228A1.9,1.9,0,0,0,10.021,213.332Zm0,0" transform="translate(0 -202.499)" fill="#595959"/>
  <path id="Path_300" data-name="Path 300" d="M287.353,341.332h-8.125a1.9,1.9,0,0,0-1.9,1.9V348.1a1.9,1.9,0,0,0,1.9,1.9h8.125a1.9,1.9,0,0,0,1.9-1.9v-4.875A1.9,1.9,0,0,0,287.353,341.332Zm0,0" transform="translate(-263.249 -323.999)" fill="#595959"/>
  <path id="Path_301" data-name="Path 301" d="M287.353,0h-8.125a1.9,1.9,0,0,0-1.9,1.9V13.271a1.9,1.9,0,0,0,1.9,1.9h8.125a1.9,1.9,0,0,0,1.9-1.9V1.9A1.9,1.9,0,0,0,287.353,0Zm0,0" transform="translate(-263.249)" fill="#595959"/>
</svg>