<svg width="17" height="13" viewBox="0 0 17 13" fill="none" xmlns="http://www.w3.org/2000/svg">
<path d="M4.60421 12.1669C3.5299 12.1669 2.61214 11.7951 1.85092 11.0513C1.08922 10.3076 0.708374 9.39852 0.708374 8.32422C0.708374 7.40339 0.985805 6.5829 1.54067 5.86276C2.09553 5.14262 2.82157 4.6822 3.71879 4.48151C3.99032 3.52526 4.49512 2.72248 5.23321 2.07318C5.97082 1.42387 6.82365 1.02839 7.79171 0.886719V6.60651L6.65837 5.50859L5.66671 6.50026L8.50004 9.33359L11.3334 6.50026L10.3417 5.50859L9.20837 6.60651V0.886719C10.4243 1.052 11.4368 1.59789 12.2457 2.52439C13.0542 3.45136 13.4584 4.54054 13.4584 5.79193C14.273 5.88637 14.9489 6.23747 15.4863 6.84522C16.0232 7.45344 16.2917 8.16484 16.2917 8.97943C16.2917 9.86484 15.9819 10.6176 15.3624 11.2376C14.7423 11.8571 13.9896 12.1669 13.1042 12.1669H4.60421Z" fill="black"/>
</svg>
