<svg width="16" height="16" viewBox="0 0 16 16" fill="none" xmlns="http://www.w3.org/2000/svg">
<path d="M15.105 4.82345C14.7107 3.88219 14.1369 3.02665 13.4158 2.30451C12.6968 1.58111 11.8427 1.00597 10.9021 0.611735C9.9385 0.205912 8.90315 -0.00211351 7.85758 1.61883e-05H7.82242C6.75894 0.00528963 5.73062 0.216227 4.76207 0.631071C3.8295 1.02935 2.98346 1.60551 2.27125 2.32736C1.5571 3.04788 0.989931 3.90043 0.601328 4.83752C0.197936 5.81198 -0.00646403 6.85729 0.000155797 7.91193C0.00542923 9.13185 0.297226 10.343 0.842148 11.4258V14.0977C0.842148 14.5442 1.20426 14.9063 1.64898 14.9063H4.31734C5.40521 15.4552 6.60568 15.744 7.82418 15.75H7.86109C8.91226 15.75 9.93004 15.5461 10.8898 15.1471C11.8257 14.7576 12.6765 14.1891 13.3947 13.4736C14.1189 12.7547 14.6884 11.9145 15.0875 10.9776C15.5005 10.0072 15.7115 8.97541 15.7168 7.91017C15.7203 6.83966 15.5128 5.8008 15.105 4.82345ZM4.34898 8.71877C3.88492 8.71877 3.50699 8.34084 3.50699 7.87502C3.50699 7.4092 3.88492 7.03127 4.34898 7.03127C4.81305 7.03127 5.19098 7.4092 5.19098 7.87502C5.19098 8.34084 4.8148 8.71877 4.34898 8.71877ZM7.85758 8.71877C7.39351 8.71877 7.01558 8.34084 7.01558 7.87502C7.01558 7.4092 7.39351 7.03127 7.85758 7.03127C8.32164 7.03127 8.69957 7.4092 8.69957 7.87502C8.69957 8.34084 8.32164 8.71877 7.85758 8.71877ZM11.3662 8.71877C10.9021 8.71877 10.5242 8.34084 10.5242 7.87502C10.5242 7.4092 10.9021 7.03127 11.3662 7.03127C11.8302 7.03127 12.2082 7.4092 12.2082 7.87502C12.2082 8.34084 11.8302 8.71877 11.3662 8.71877Z" fill="#595959"/>
</svg>
