<svg width="21" height="28" viewBox="0 0 21 28" fill="none" xmlns="http://www.w3.org/2000/svg">
<path d="M20.6172 5.74219L15.2633 0.382812C15.0172 0.136719 14.6836 0 14.3336 0H14V7H21V6.66641C21 6.32188 20.8633 5.98828 20.6172 5.74219ZM12.25 7.4375V0H1.3125C0.585156 0 0 0.585156 0 1.3125V26.6875C0 27.4148 0.585156 28 1.3125 28H19.6875C20.4148 28 21 27.4148 21 26.6875V8.75H13.5625C12.8406 8.75 12.25 8.15938 12.25 7.4375ZM3.5 3.9375C3.5 3.69578 3.69578 3.5 3.9375 3.5H8.3125C8.55422 3.5 8.75 3.69578 8.75 3.9375V4.8125C8.75 5.05422 8.55422 5.25 8.3125 5.25H3.9375C3.69578 5.25 3.5 5.05422 3.5 4.8125V3.9375ZM3.5 8.3125V7.4375C3.5 7.19578 3.69578 7 3.9375 7H8.3125C8.55422 7 8.75 7.19578 8.75 7.4375V8.3125C8.75 8.55422 8.55422 8.75 8.3125 8.75H3.9375C3.69578 8.75 3.5 8.55422 3.5 8.3125ZM11.375 22.7434V24.0625C11.375 24.3042 11.1792 24.5 10.9375 24.5H10.0625C9.82078 24.5 9.625 24.3042 9.625 24.0625V22.7341C9.00758 22.7024 8.40711 22.487 7.90945 22.1134C7.69617 21.9532 7.68523 21.6338 7.87828 21.4495L8.52086 20.8365C8.67234 20.6921 8.89766 20.6855 9.07484 20.7966C9.28648 20.9289 9.52656 21 9.77594 21H11.3132C11.6687 21 11.9585 20.6763 11.9585 20.2787C11.9585 19.9533 11.7611 19.6667 11.4789 19.5825L9.01797 18.8442C8.00133 18.5391 7.29094 17.5634 7.29094 16.4713C7.29094 15.1304 8.33274 14.041 9.62445 14.0066V12.6875C9.62445 12.4458 9.82023 12.25 10.062 12.25H10.937C11.1787 12.25 11.3745 12.4458 11.3745 12.6875V14.0159C11.9919 14.0476 12.5923 14.2625 13.09 14.6366C13.3033 14.7968 13.3142 15.1162 13.1212 15.3005L12.4786 15.9135C12.3271 16.0579 12.1018 16.0645 11.9246 15.9534C11.713 15.8205 11.4729 15.75 11.2235 15.75H9.68625C9.33078 15.75 9.04094 16.0737 9.04094 16.4713C9.04094 16.7967 9.23836 17.0833 9.52055 17.1675L11.9815 17.9058C12.9981 18.2109 13.7085 19.1866 13.7085 20.2787C13.7085 21.6202 12.6667 22.709 11.375 22.7434Z" fill="#362D1E"/>
</svg>
