<svg width="24" height="24" viewBox="0 0 24 24" fill="none" xmlns="http://www.w3.org/2000/svg">
<path d="M11.6 12.8C10.2745 12.8 9.2 11.7255 9.2 10.4C9.2 9.07452 10.2745 8 11.6 8C12.9255 8 14 9.07452 14 10.4C14 11.7255 12.9255 12.8 11.6 12.8Z" stroke="#262626" stroke-linecap="round" stroke-linejoin="round"/>
<path d="M11.6 4C13.2974 4 14.9253 4.67428 16.1255 5.87452C17.3257 7.07475 18 8.70261 18 10.4C18 11.9136 17.6784 12.904 16.8 14L11.6 20L6.4 14C5.5216 12.904 5.2 11.9136 5.2 10.4C5.2 8.70261 5.87428 7.07475 7.07452 5.87452C8.27475 4.67428 9.90261 4 11.6 4V4Z" stroke="#262626" stroke-linecap="round" stroke-linejoin="round"/>
</svg>
