<svg width="12" height="11" viewBox="0 0 12 11" fill="none" xmlns="http://www.w3.org/2000/svg">
<path d="M10.0832 0.833984H1.9165C1.45238 0.833984 1.00726 1.01836 0.679067 1.34655C0.350878 1.67474 0.166504 2.11986 0.166504 2.58398V8.41732C0.166504 8.88145 0.350878 9.32657 0.679067 9.65475C1.00726 9.98294 1.45238 10.1673 1.9165 10.1673H10.0832C10.5473 10.1673 10.9924 9.98294 11.3206 9.65475C11.6488 9.32657 11.8332 8.88145 11.8332 8.41732V2.58398C11.8332 2.11986 11.6488 1.67474 11.3206 1.34655C10.9924 1.01836 10.5473 0.833984 10.0832 0.833984ZM9.69234 2.00065L5.99984 4.77148L2.30734 2.00065H9.69234ZM10.0832 9.00065H1.9165C1.76179 9.00065 1.61342 8.93919 1.50402 8.8298C1.39463 8.7204 1.33317 8.57203 1.33317 8.41732V2.72982L5.64984 5.96732C5.75081 6.04305 5.87362 6.08398 5.99984 6.08398C6.12605 6.08398 6.24886 6.04305 6.34984 5.96732L10.6665 2.72982V8.41732C10.6665 8.57203 10.605 8.7204 10.4956 8.8298C10.3863 8.93919 10.2379 9.00065 10.0832 9.00065Z" fill="#595959"/>
</svg>
