<svg width="121" height="32" viewBox="0 0 121 32" fill="none" xmlns="http://www.w3.org/2000/svg">
<path d="M49.4254 10.1035H44.5907C44.2599 10.1035 43.9785 10.3439 43.9269 10.6705L41.9716 23.0678C41.9327 23.3124 42.1221 23.533 42.3703 23.533H44.6784C45.0092 23.533 45.2906 23.2926 45.3422 22.9653L45.8696 19.6216C45.9205 19.2943 46.2025 19.0539 46.5327 19.0539H48.0632C51.2479 19.0539 53.0859 17.5128 53.5659 14.4589C53.7822 13.1228 53.5751 12.073 52.9494 11.3378C52.2623 10.5305 51.0436 10.1035 49.4254 10.1035ZM49.9832 14.6314C49.7188 16.3662 48.3933 16.3662 47.1116 16.3662H46.3821L46.8939 13.1263C46.9243 12.9305 47.094 12.7863 47.2919 12.7863H47.6263C48.4993 12.7863 49.3229 12.7863 49.7485 13.284C50.0023 13.5809 50.08 14.022 49.9832 14.6314Z" fill="#253B80"/>
<path d="M63.877 14.5771H61.5618C61.3646 14.5771 61.1942 14.7213 61.1638 14.9171L61.0613 15.5647L60.8995 15.33C60.3982 14.6026 59.2806 14.3594 58.1651 14.3594C55.6067 14.3594 53.4216 16.2971 52.996 19.0152C52.7747 20.3711 53.0893 21.6676 53.8585 22.5717C54.564 23.4031 55.5735 23.7495 56.7745 23.7495C58.8359 23.7495 59.979 22.424 59.979 22.424L59.8758 23.0673C59.8369 23.3133 60.0264 23.5339 60.2731 23.5339H62.3585C62.6901 23.5339 62.97 23.2935 63.0224 22.9662L64.2736 15.0423C64.3132 14.7984 64.1244 14.5771 63.877 14.5771ZM60.6499 19.0831C60.4265 20.4057 59.3767 21.2936 58.0378 21.2936C57.3655 21.2936 56.8283 21.078 56.4833 20.6694C56.1411 20.2636 56.0111 19.6861 56.1199 19.0428C56.3285 17.7314 57.3959 16.8145 58.7143 16.8145C59.3718 16.8145 59.9062 17.033 60.2583 17.4451C60.611 17.8615 60.751 18.4426 60.6499 19.0831Z" fill="#253B80"/>
<path d="M76.2073 14.5762H73.8808C73.6589 14.5762 73.4503 14.6865 73.3245 14.871L70.1157 19.5975L68.7556 15.0555C68.6701 14.7713 68.4078 14.5762 68.1109 14.5762H65.8247C65.5469 14.5762 65.3539 14.8476 65.4422 15.1092L68.0048 22.6295L65.5956 26.0305C65.4062 26.2984 65.5971 26.6667 65.9244 26.6667H68.248C68.4686 26.6667 68.675 26.5593 68.8001 26.3783L76.5382 15.2089C76.7234 14.9417 76.5332 14.5762 76.2073 14.5762Z" fill="#253B80"/>
<path d="M83.91 10.1035H79.0746C78.7444 10.1035 78.4631 10.3439 78.4115 10.6705L76.4561 23.0678C76.4172 23.3124 76.6067 23.533 76.8534 23.533H79.3347C79.5652 23.533 79.7624 23.3647 79.7985 23.1357L80.3534 19.6216C80.4043 19.2943 80.6864 19.0539 81.0165 19.0539H82.5463C85.7317 19.0539 87.569 17.5128 88.0497 14.4589C88.2667 13.1228 88.0582 12.073 87.4326 11.3378C86.7461 10.5305 85.5281 10.1035 83.91 10.1035ZM84.4677 14.6314C84.204 16.3662 82.8786 16.3662 81.5962 16.3662H80.8673L81.3799 13.1263C81.4103 12.9305 81.5785 12.7863 81.7772 12.7863H82.1115C82.9839 12.7863 83.8082 12.7863 84.2337 13.284C84.4875 13.5809 84.5646 14.022 84.4677 14.6314Z" fill="#179BD7"/>
<path d="M98.3609 14.5771H96.0472C95.8485 14.5771 95.6796 14.7213 95.6499 14.9171L95.5474 15.5647L95.3848 15.33C94.8836 14.6026 93.7666 14.3594 92.6511 14.3594C90.0927 14.3594 87.9083 16.2971 87.4828 19.0152C87.2622 20.3711 87.5754 21.6676 88.3445 22.5717C89.0514 23.4031 90.0595 23.7495 91.2606 23.7495C93.322 23.7495 94.4651 22.424 94.4651 22.424L94.3619 23.0673C94.323 23.3133 94.5124 23.5339 94.7606 23.5339H96.8453C97.1754 23.5339 97.4568 23.2935 97.5084 22.9662L98.7604 15.0423C98.7985 14.7984 98.6091 14.5771 98.3609 14.5771ZM95.1338 19.0831C94.9119 20.4057 93.8607 21.2936 92.5217 21.2936C91.8509 21.2936 91.3122 21.078 90.9672 20.6694C90.625 20.2636 90.4964 19.6861 90.6038 19.0428C90.8138 17.7314 91.8798 16.8145 93.1983 16.8145C93.8557 16.8145 94.3901 17.033 94.7422 17.4451C95.0964 17.8615 95.2363 18.4426 95.1338 19.0831Z" fill="#179BD7"/>
<path d="M101.09 10.4443L99.1061 23.0685C99.0672 23.3131 99.2567 23.5337 99.5034 23.5337H101.498C101.83 23.5337 102.111 23.2933 102.162 22.966L104.119 10.5694C104.158 10.3248 103.968 10.1035 103.722 10.1035H101.488C101.29 10.1042 101.121 10.2484 101.09 10.4443Z" fill="#179BD7"/>
<path d="M21.894 25.9425L22.2638 23.5941L21.4402 23.575H17.5076L20.2405 6.2461C20.249 6.19378 20.2766 6.14501 20.3169 6.11037C20.3572 6.07573 20.4088 6.05664 20.4625 6.05664H27.0935C29.2949 6.05664 30.814 6.51473 31.6072 7.41889C31.9791 7.84304 32.2159 8.28629 32.3304 8.77407C32.4506 9.28588 32.4527 9.89737 32.3353 10.6432L32.3269 10.6976V11.1755L32.6987 11.3862C33.0119 11.5523 33.2607 11.7425 33.4516 11.9602C33.7697 12.3228 33.9754 12.7838 34.0624 13.3302C34.1522 13.8922 34.1225 14.561 33.9754 15.3181C33.8058 16.189 33.5315 16.9476 33.161 17.5682C32.8203 18.1401 32.3862 18.6145 31.8709 18.9821C31.3789 19.3313 30.7942 19.5964 30.1333 19.7661C29.4928 19.9329 28.7625 20.017 27.9616 20.017H27.4455C27.0765 20.017 26.7181 20.1499 26.4368 20.3882C26.1547 20.6313 25.9681 20.9636 25.9108 21.327L25.8719 21.5383L25.2187 25.6774L25.189 25.8294C25.1813 25.8774 25.1678 25.9015 25.148 25.9177C25.1304 25.9326 25.1049 25.9425 25.0802 25.9425H21.894Z" fill="#253B80"/>
<path d="M33.0508 10.7539C33.031 10.8804 33.0084 11.0098 32.9829 11.1427C32.1085 15.6324 29.1168 17.1834 25.2958 17.1834H23.3504C22.8831 17.1834 22.4893 17.5227 22.4165 17.9836L21.4205 24.3007L21.1384 26.0914C21.091 26.3939 21.3243 26.6668 21.6297 26.6668H25.0802C25.4888 26.6668 25.8359 26.3699 25.9002 25.967L25.9342 25.7916L26.5838 21.6689L26.6256 21.4426C26.6892 21.0383 27.037 20.7414 27.4456 20.7414H27.9616C31.3047 20.7414 33.9217 19.3841 34.6866 15.4564C35.0062 13.8156 34.8407 12.4456 33.9953 11.482C33.7394 11.1915 33.4219 10.9504 33.0508 10.7539Z" fill="#179BD7"/>
<path d="M32.136 10.3881C32.0024 10.3492 31.8646 10.3139 31.7232 10.2821C31.5811 10.251 31.4355 10.2234 31.2856 10.1993C30.7611 10.1145 30.1863 10.0742 29.5706 10.0742H24.3733C24.2453 10.0742 24.1237 10.1032 24.0149 10.1555C23.7752 10.2707 23.5971 10.4977 23.5539 10.7755L22.4483 17.7783L22.4165 17.9826C22.4893 17.5217 22.8831 17.1824 23.3504 17.1824H25.2958C29.1168 17.1824 32.1085 15.6307 32.9829 11.1417C33.0091 11.0088 33.031 10.8794 33.0508 10.7529C32.8295 10.6355 32.5899 10.5351 32.3319 10.4496C32.2682 10.4284 32.2025 10.4079 32.136 10.3881Z" fill="#222D65"/>
<path d="M23.554 10.7766C23.5971 10.4988 23.7752 10.2719 24.0149 10.1573C24.1244 10.105 24.2453 10.076 24.3733 10.076H29.5706C30.1863 10.076 30.7611 10.1163 31.2856 10.2012C31.4355 10.2252 31.5811 10.2528 31.7232 10.2839C31.8646 10.3157 32.0024 10.351 32.136 10.3899C32.2025 10.4097 32.2682 10.4302 32.3326 10.4507C32.5906 10.5363 32.8302 10.6373 33.0515 10.754C33.3117 9.09483 33.0494 7.96516 32.1523 6.94224C31.1633 5.81611 29.3783 5.33398 27.0942 5.33398H20.4633C19.9967 5.33398 19.5987 5.67331 19.5266 6.13493L16.7646 23.642C16.7102 23.9884 16.9774 24.3008 17.3266 24.3008H21.4204L22.4483 17.7794L23.554 10.7766Z" fill="#253B80"/>
</svg>
