<svg width="14" height="16" viewBox="0 0 14 16" fill="none" xmlns="http://www.w3.org/2000/svg">
<path d="M7 0C6.30381 0 5.63613 0.280952 5.14384 0.781049C4.65156 1.28115 4.375 1.95942 4.375 2.66667C4.375 5.33333 8.75 8.88889 1.75 8.88889C1.28587 8.88889 0.840752 9.07619 0.512563 9.40959C0.184374 9.74299 0 10.1952 0 10.6667V12.4444H14V10.6667C14 10.1952 13.8156 9.74299 13.4874 9.40959C13.1592 9.07619 12.7141 8.88889 12.25 8.88889C5.25 8.88889 9.625 5.33333 9.625 2.66667C9.625 0.888889 8.4525 0 7 0ZM1.75 14.2222V16H12.25V14.2222H1.75Z" fill="#595959"/>
</svg>
