<svg width="13" height="13" viewBox="0 0 13 13" fill="none" xmlns="http://www.w3.org/2000/svg">
<path d="M2.43746 8.37483C2.98412 8.3732 3.5101 8.16567 3.91059 7.79358L7.82309 10.0292C7.692 10.5415 7.74978 11.0838 7.98587 11.5569C8.22196 12.03 8.62056 12.4023 9.10869 12.6056C9.59682 12.8088 10.1418 12.8295 10.6439 12.6638C11.1461 12.498 11.5717 12.157 11.8429 11.7031C12.1142 11.2492 12.2128 10.7128 12.1209 10.1921C12.029 9.6714 11.7526 9.20123 11.3423 8.86765C10.932 8.53408 10.4154 8.35942 9.88684 8.37566C9.35833 8.3919 8.85335 8.59794 8.46434 8.95608L4.55184 6.72045C4.59309 6.5642 4.61559 6.40233 4.61934 6.24045L8.46309 4.04358C8.8332 4.38031 9.30785 4.57951 9.80743 4.60777C10.307 4.63603 10.8011 4.49162 11.2068 4.19877C11.6125 3.90592 11.9052 3.48245 12.0357 2.9994C12.1662 2.51635 12.1266 2.00311 11.9236 1.54578C11.7206 1.08846 11.3664 0.714871 10.9206 0.487698C10.4748 0.260524 9.96438 0.193586 9.47505 0.298114C8.98571 0.402641 8.54722 0.672274 8.23312 1.06178C7.91902 1.45128 7.74843 1.93696 7.74996 2.43733C7.75246 2.61733 7.77684 2.7967 7.82309 2.97045L4.27059 4.99983C4.06457 4.68111 3.77919 4.42148 3.44247 4.24643C3.10576 4.07139 2.72929 3.98695 2.35007 4.00142C1.97085 4.01589 1.60191 4.12876 1.27952 4.32896C0.957117 4.52915 0.692345 4.80978 0.511214 5.14326C0.330084 5.47674 0.238827 5.85161 0.246408 6.23103C0.25399 6.61045 0.36015 6.98138 0.554458 7.30736C0.748766 7.63334 1.02454 7.90316 1.35468 8.09031C1.68481 8.27747 2.05796 8.37552 2.43746 8.37483Z" fill="black"/>
</svg>
