<svg width="19" height="15" viewBox="0 0 19 15" fill="none" xmlns="http://www.w3.org/2000/svg">
<path d="M6.93747 10C4.62209 10 0 11.1167 0 13.3333V14.1667C0 14.625 0.390233 15 0.867184 15H13.0078C13.4847 15 13.8749 14.625 13.8749 14.1667V13.3333C13.8749 11.1167 9.25285 10 6.93747 10ZM3.24327 5H10.6403C10.8745 5 11.0653 4.81667 11.0653 4.59167V4.575C11.0653 4.4667 11.0205 4.36284 10.9408 4.28626C10.8611 4.20969 10.753 4.16667 10.6403 4.16667H10.4062C10.4062 2.93333 9.70379 1.875 8.67184 1.29167V2.08333C8.67184 2.31667 8.48106 2.5 8.23825 2.5C7.99544 2.5 7.80466 2.31667 7.80466 2.08333V0.95C7.52716 0.883333 7.24099 0.833333 6.93747 0.833333C6.63396 0.833333 6.34779 0.883333 6.07029 0.95V2.08333C6.07029 2.31667 5.87951 2.5 5.6367 2.5C5.39388 2.5 5.2031 2.31667 5.2031 2.08333V1.29167C4.17115 1.875 3.46874 2.93333 3.46874 4.16667H3.24327C3.18747 4.16667 3.13221 4.17723 3.08066 4.19775C3.0291 4.21827 2.98226 4.24835 2.9428 4.28626C2.90335 4.32418 2.87205 4.3692 2.85069 4.41874C2.82934 4.46828 2.81835 4.52138 2.81835 4.575V4.6C2.81835 4.81667 3.00913 5 3.24327 5ZM6.93747 8.33333C8.55043 8.33333 9.89457 7.26667 10.2848 5.83333H3.59014C3.98037 7.26667 5.32451 8.33333 6.93747 8.33333ZM18.1935 2.69167L19 2L18.3496 0.916667L17.3177 1.24167C17.1963 1.15 17.0575 1.075 16.9101 1.01667L16.6933 0H15.3925L15.1757 1.01667C15.0283 1.075 14.8895 1.15 14.7595 1.24167L13.7362 0.916667L13.0858 2L13.8923 2.69167C13.8749 2.83333 13.8749 2.98333 13.8923 3.125L13.0858 3.83333L13.7362 4.91667L14.7768 4.6C14.8895 4.68333 15.0196 4.75 15.1497 4.80833L15.3925 5.83333H16.6933L16.9274 4.81667C17.0662 4.75833 17.1876 4.69167 17.309 4.60833L18.3409 4.925L18.9913 3.84167L18.1848 3.13333C18.2109 2.975 18.2022 2.83333 18.1935 2.69167ZM16.0429 3.95833C15.7554 3.95833 15.4797 3.84859 15.2764 3.65324C15.0731 3.45789 14.9589 3.19293 14.9589 2.91667C14.9589 2.6404 15.0731 2.37545 15.2764 2.1801C15.4797 1.98475 15.7554 1.875 16.0429 1.875C16.3304 1.875 16.6061 1.98475 16.8094 2.1801C17.0127 2.37545 17.1269 2.6404 17.1269 2.91667C17.1269 3.19293 17.0127 3.45789 16.8094 3.65324C16.6061 3.84859 16.3304 3.95833 16.0429 3.95833ZM15.9562 6.49167L15.2191 6.725C15.1324 6.65833 15.037 6.60833 14.9329 6.56667L14.7768 5.83333H13.8489L13.6928 6.55833C13.5888 6.6 13.4847 6.65833 13.398 6.71667L12.6696 6.48333L12.2013 7.25833L12.7736 7.75C12.7649 7.85833 12.7649 7.95833 12.7736 8.05833L12.2013 8.56667L12.6696 9.34167L13.4153 9.11667C13.5021 9.175 13.5888 9.225 13.6842 9.26667L13.8403 10H14.7681L14.9329 9.275C15.0283 9.23333 15.1237 9.18333 15.2104 9.125L15.9475 9.35L16.4158 8.575L15.8435 8.06667C15.8521 7.95833 15.8521 7.85833 15.8435 7.75833L16.4158 7.26667L15.9562 6.49167ZM14.3085 8.65833C13.8836 8.65833 13.5367 8.325 13.5367 7.91667C13.5367 7.50833 13.8836 7.175 14.3085 7.175C14.7335 7.175 15.0803 7.50833 15.0803 7.91667C15.0803 8.325 14.7335 8.65833 14.3085 8.65833Z" fill="#2F2E2C"/>
</svg>
