<svg width="16" height="14" viewBox="0 0 16 14" fill="none" xmlns="http://www.w3.org/2000/svg">
<path d="M8 0C7.70014 -4.56323e-09 7.40321 0.0603171 7.12617 0.177508C6.84913 0.294698 6.59741 0.466467 6.38537 0.683006C6.17334 0.899546 6.00514 1.15662 5.89039 1.43954C5.77563 1.72246 5.71657 2.0257 5.71657 2.33193C5.71657 2.63816 5.77563 2.9414 5.89039 3.22432C6.00514 3.50724 6.17334 3.76431 6.38537 3.98085C6.59741 4.19739 6.84913 4.36916 7.12617 4.48635C7.40321 4.60354 7.70014 4.66386 8 4.66386C8.6056 4.66386 9.1864 4.41818 9.61463 3.98085C10.0429 3.54353 10.2834 2.9504 10.2834 2.33193C10.2834 1.71346 10.0429 1.12033 9.61463 0.683006C9.1864 0.245685 8.6056 0 8 0ZM13.1429 1.1648C12.6882 1.1648 12.2522 1.34925 11.9307 1.67757C11.6092 2.00589 11.4286 2.45118 11.4286 2.9155C11.4286 3.37981 11.6092 3.82511 11.9307 4.15343C12.2522 4.48175 12.6882 4.66619 13.1429 4.66619C13.5975 4.66619 14.0336 4.48175 14.355 4.15343C14.6765 3.82511 14.8571 3.37981 14.8571 2.9155C14.8571 2.45118 14.6765 2.00589 14.355 1.67757C14.0336 1.34925 13.5975 1.1648 13.1429 1.1648ZM2.85714 1.1648C2.40249 1.1648 1.96645 1.34925 1.64496 1.67757C1.32347 2.00589 1.14286 2.45118 1.14286 2.9155C1.14286 3.37981 1.32347 3.82511 1.64496 4.15343C1.96645 4.48175 2.40249 4.66619 2.85714 4.66619C3.3118 4.66619 3.74784 4.48175 4.06933 4.15343C4.39082 3.82511 4.57143 3.37981 4.57143 2.9155C4.57143 2.45118 4.39082 2.00589 4.06933 1.67757C3.74784 1.34925 3.3118 1.1648 2.85714 1.1648ZM4.57143 6.99229C4.57354 6.68416 4.69488 6.38939 4.90898 6.17228C5.12308 5.95516 5.41256 5.83332 5.71429 5.83333H10.2857C10.5888 5.83333 10.8795 5.95629 11.0938 6.17517C11.3082 6.39405 11.4286 6.69092 11.4286 7.00046V10.5019C11.4285 10.8692 11.3722 11.2342 11.2617 11.5838C11.0087 12.3759 10.4874 13.05 9.79145 13.4849C9.09553 13.9199 8.27057 14.0872 7.46472 13.9569C6.65886 13.8266 5.92489 13.4071 5.39461 12.7739C4.86432 12.1406 4.57246 11.3351 4.57143 10.5019V6.99229ZM3.42857 7.00046C3.42857 6.57446 3.53943 6.17646 3.73486 5.83333H1.14286C0.839753 5.83333 0.549063 5.95629 0.334735 6.17517C0.120408 6.39405 1.58187e-07 6.69092 1.58187e-07 7.00046V9.91829C-0.000155483 10.396 0.114544 10.8664 0.334026 11.2883C0.553508 11.7102 0.871059 12.0706 1.25879 12.3378C1.64652 12.605 2.09258 12.771 2.55778 12.821C3.02298 12.8711 3.4931 12.8037 3.92686 12.6249C3.59792 11.9673 3.42711 11.2391 3.42857 10.5007V7.00046ZM12.5714 7.00046V10.5019C12.5714 11.2663 12.392 11.9876 12.0731 12.6249C12.5069 12.8037 12.977 12.8711 13.4422 12.821C13.9074 12.771 14.3535 12.605 14.7412 12.3378C15.1289 12.0706 15.4465 11.7102 15.666 11.2883C15.8855 10.8664 16.0002 10.396 16 9.91829V7.00046C16 6.69092 15.8796 6.39405 15.6653 6.17517C15.4509 5.95629 15.1602 5.83333 14.8571 5.83333H12.2651C12.4594 6.17646 12.5714 6.57446 12.5714 7.00046Z" fill="#2F2E2C"/>
</svg>
