<svg width="26" height="26" viewBox="0 0 26 26" fill="none" xmlns="http://www.w3.org/2000/svg">
<path d="M21.1449 7.26297C20.887 5.73307 20.1628 4.32016 19.0714 3.21742C17.9801 2.11467 16.5748 1.3759 15.0476 1.10209C13.5205 0.828293 11.946 1.03283 10.5395 1.68773C9.13301 2.34264 7.9631 3.41596 7.18971 4.76095C6.92876 4.71168 6.66381 4.68661 6.39824 4.68606C5.30543 4.68749 4.25779 5.12224 3.48505 5.89497C2.71232 6.66771 2.27757 7.71535 2.27614 8.80816C2.27736 9.09543 2.30605 9.38193 2.36182 9.66374C1.63231 10.1944 1.03824 10.8897 0.627866 11.693C0.217491 12.4964 0.00237913 13.3852 0 14.2873C0.006351 15.7848 0.560445 17.2282 1.55777 18.3453C2.03808 18.9075 2.62584 19.3682 3.28657 19.7002C3.9473 20.0322 4.66769 20.2289 5.40546 20.2787H10.0464C10.2378 20.2787 10.4214 20.2027 10.5567 20.0674C10.6921 19.932 10.7681 19.7485 10.7681 19.5571C10.7681 19.3657 10.6921 19.1821 10.5567 19.0468C10.4214 18.9114 10.2378 18.8354 10.0464 18.8354H5.46957C3.2827 18.7018 1.44393 16.6222 1.44393 14.2819C1.44578 13.5354 1.64261 12.8023 2.01495 12.1553C2.38728 11.5083 2.92219 10.9697 3.5667 10.593C3.71339 10.5068 3.82525 10.3719 3.88282 10.2117C3.94039 10.0516 3.94005 9.87637 3.88184 9.71646C3.77367 9.42199 3.71928 9.11048 3.72127 8.79678C3.72254 8.08671 4.00517 7.4061 4.50727 6.904C5.00936 6.40191 5.68998 6.11928 6.40004 6.11801C6.71191 6.11696 7.02148 6.17133 7.31433 6.27858C7.48385 6.34058 7.6704 6.33711 7.83749 6.26886C8.00459 6.2006 8.14021 6.07246 8.21784 5.90951C8.7864 4.70466 9.73452 3.71961 10.9168 3.10545C12.099 2.49129 13.4501 2.28194 14.7628 2.50951C16.0755 2.73709 17.2772 3.38902 18.1838 4.36531C19.0903 5.3416 19.6515 6.58832 19.7813 7.91424C19.7963 8.07235 19.8632 8.22106 19.9715 8.33715C20.0799 8.45323 20.2237 8.53016 20.3804 8.55592C21.6011 8.80053 22.6937 9.47474 23.4597 10.4562C24.2257 11.4376 24.6144 12.6611 24.5553 13.9047C24.4961 15.1483 23.993 16.3294 23.1373 17.2337C22.2816 18.1379 21.1299 18.7054 19.8915 18.833H15.9486C15.7572 18.833 15.5736 18.909 15.4383 19.0444C15.3029 19.1797 15.2269 19.3633 15.2269 19.5547C15.2269 19.7461 15.3029 19.9296 15.4383 20.065C15.5736 20.2003 15.7572 20.2764 15.9486 20.2764H19.9688C21.6182 20.1515 23.1551 19.3927 24.2569 18.159C25.0234 17.3206 25.5625 16.2999 25.8229 15.1941C26.0832 14.0884 26.0562 12.9344 25.7443 11.842C25.4323 10.7497 24.846 9.75541 24.041 8.95386C23.236 8.15232 22.2392 7.5702 21.1455 7.26297H21.1449Z" fill="#737373"/>
<path d="M17.3326 14.9734C17.3996 14.9066 17.4528 14.8273 17.4891 14.7399C17.5254 14.6525 17.5441 14.5588 17.5441 14.4642C17.5441 14.3695 17.5254 14.2758 17.4891 14.1884C17.4528 14.101 17.3996 14.0217 17.3326 13.9549L13.5101 10.1323C13.3752 9.99742 13.1928 9.92065 13.002 9.91846C12.9073 9.91833 12.8136 9.9372 12.7263 9.97394C12.639 10.0107 12.56 10.0645 12.4939 10.1323L8.6714 13.9549C8.57093 14.056 8.50253 14.1846 8.47479 14.3244C8.44704 14.4642 8.46118 14.6092 8.51542 14.741C8.56967 14.8728 8.66162 14.9857 8.77974 15.0656C8.89787 15.1454 9.03691 15.1886 9.17947 15.1897C9.27419 15.1901 9.36801 15.1713 9.45531 15.1346C9.54262 15.0978 9.6216 15.0438 9.68754 14.9758L12.2806 12.3827V24.2949C12.2806 24.4863 12.3567 24.6698 12.492 24.8052C12.6273 24.9405 12.8109 25.0166 13.0023 25.0166C13.1937 25.0166 13.3773 24.9405 13.5126 24.8052C13.6479 24.6698 13.724 24.4863 13.724 24.2949V12.3779L16.3171 14.971C16.3832 15.0385 16.4622 15.0921 16.5492 15.1288C16.6363 15.1655 16.7298 15.1845 16.8243 15.1847C16.9188 15.1849 17.0124 15.1664 17.0997 15.1301C17.1869 15.0938 17.2661 15.0406 17.3326 14.9734Z" fill="#737373"/>
</svg>
