<svg width="14" height="13" viewBox="0 0 14 13" fill="none" xmlns="http://www.w3.org/2000/svg">
<path d="M4.9 6.50039C6.44656 6.50039 7.7 5.24695 7.7 3.70039C7.7 2.15383 6.44656 0.900391 4.9 0.900391C3.35344 0.900391 2.1 2.15383 2.1 3.70039C2.1 5.24695 3.35344 6.50039 4.9 6.50039ZM6.86 7.20039H6.49469C6.00906 7.42351 5.46875 7.55039 4.9 7.55039C4.33125 7.55039 3.79313 7.42351 3.30531 7.20039H2.94C1.31687 7.20039 0 8.51726 0 10.1404V11.0504C0 11.6301 0.470313 12.1004 1.05 12.1004H7.06344C7.01094 11.9516 6.98906 11.7941 7.00656 11.6345L7.15531 10.3023L7.18156 10.0595L7.35438 9.88664L9.04531 8.1957C8.50937 7.58977 7.73281 7.20039 6.86 7.20039ZM7.85094 10.3788L7.70219 11.7132C7.67812 11.9363 7.86625 12.1245 8.08719 12.0982L9.41938 11.9495L12.4359 8.93289L10.8675 7.36445L7.85094 10.3788ZM13.8469 6.78258L13.0178 5.95352C12.8144 5.75008 12.4819 5.75008 12.2784 5.95352L11.4516 6.78039L11.3619 6.87008L12.9325 8.43852L13.8469 7.52414C14.0503 7.31851 14.0503 6.9882 13.8469 6.78258Z" fill="white"/>
</svg>
