<svg width="14" height="14" viewBox="0 0 14 14" fill="none" xmlns="http://www.w3.org/2000/svg">
<path fill-rule="evenodd" clip-rule="evenodd" d="M4.62499 8.58341H12.5417C12.7516 8.58341 12.953 8.66682 13.1014 8.81529C13.2499 8.96375 13.3333 9.16512 13.3333 9.37508C13.3333 9.58504 13.2499 9.78641 13.1014 9.93487C12.953 10.0833 12.7516 10.1667 12.5417 10.1667H4.62499C4.41503 10.1667 4.21366 10.0833 4.0652 9.93487C3.91673 9.78641 3.83332 9.58504 3.83332 9.37508C3.83332 9.16512 3.91673 8.96375 4.0652 8.81529C4.21366 8.66682 4.41503 8.58341 4.62499 8.58341ZM4.62499 11.7501H12.5417C12.7516 11.7501 12.953 11.8335 13.1014 11.982C13.2499 12.1304 13.3333 12.3318 13.3333 12.5417C13.3333 12.7517 13.2499 12.9531 13.1014 13.1015C12.953 13.25 12.7516 13.3334 12.5417 13.3334H4.62499C4.41503 13.3334 4.21366 13.25 4.0652 13.1015C3.91673 12.9531 3.83332 12.7517 3.83332 12.5417C3.83332 12.3318 3.91673 12.1304 4.0652 11.982C4.21366 11.8335 4.41503 11.7501 4.62499 11.7501ZM9.37499 5.41675H12.5417C12.7516 5.41675 12.953 5.50016 13.1014 5.64862C13.2499 5.79709 13.3333 5.99845 13.3333 6.20841C13.3333 6.41838 13.2499 6.61974 13.1014 6.76821C12.953 6.91667 12.7516 7.00008 12.5417 7.00008H9.37499C9.16503 7.00008 8.96366 6.91667 8.8152 6.76821C8.66673 6.61974 8.58332 6.41838 8.58332 6.20841C8.58332 5.99845 8.66673 5.79709 8.8152 5.64862C8.96366 5.50016 9.16503 5.41675 9.37499 5.41675ZM3.62986 6.932L0.666656 3.96958L1.78607 2.84937L3.62986 4.69316L7.65549 0.666748L8.7757 1.78616L3.62986 6.932Z" fill="white"/>
</svg>
