<svg width="22" height="22" viewBox="0 0 22 22" fill="none" xmlns="http://www.w3.org/2000/svg">
<path d="M14.18 15.2405L20.219 21.281C20.2887 21.3507 20.3715 21.406 20.4626 21.4438C20.5537 21.4815 20.6514 21.5009 20.75 21.5009C20.8486 21.5009 20.9463 21.4815 21.0374 21.4438C21.1285 21.406 21.2113 21.3507 21.281 21.281C21.3507 21.2112 21.406 21.1285 21.4438 21.0373C21.4815 20.9462 21.5009 20.8486 21.5009 20.75C21.5009 20.6514 21.4815 20.5537 21.4438 20.4626C21.406 20.3715 21.3507 20.2887 21.281 20.219L1.781 0.718971C1.71127 0.649239 1.62849 0.593925 1.53738 0.556186C1.44627 0.518447 1.34862 0.499023 1.25 0.499023C1.15139 0.499023 1.05374 0.518447 0.962626 0.556186C0.871517 0.593925 0.788733 0.649239 0.719001 0.718971C0.64927 0.788703 0.593955 0.871487 0.556216 0.962596C0.518478 1.0537 0.499054 1.15136 0.499054 1.24997C0.499054 1.34859 0.518478 1.44624 0.556216 1.53735C0.593955 1.62846 0.64927 1.71124 0.719001 1.78097L5.564 6.62597C4.90458 7.0931 4.31122 7.6471 3.8 8.27297C3.0761 9.16121 2.50943 10.1667 2.1245 11.246C2.093 11.3375 2.054 11.4635 2.054 11.4635L2.027 11.5565C2.027 11.5565 1.913 12.302 2.5595 12.473C2.75165 12.5238 2.95609 12.4962 3.12793 12.3964C3.29978 12.2965 3.42496 12.1325 3.476 11.9405L3.4775 11.936L3.4895 11.8985L3.542 11.735C3.86894 10.8238 4.34825 9.97469 4.9595 9.22397C5.44002 8.63336 6.0087 8.12034 6.6455 7.70297L9.0125 10.07C8.53485 10.3694 8.13083 10.7726 7.83051 11.2496C7.53019 11.7267 7.34128 12.2653 7.27785 12.8255C7.21442 13.3856 7.27809 13.9528 7.46412 14.485C7.65016 15.0171 7.95377 15.5005 8.35238 15.8991C8.751 16.2977 9.23435 16.6013 9.76649 16.7873C10.2986 16.9734 10.8659 17.0371 11.426 16.9736C11.9861 16.9102 12.5248 16.7213 13.0018 16.421C13.4789 16.1206 13.8821 15.7166 14.1815 15.239L14.18 15.2405ZM8.48 5.29847L9.761 6.57947C10.151 6.52847 10.5635 6.49997 11 6.49997C14.066 6.49997 15.929 7.86797 17.042 9.22547C17.6534 9.9761 18.1327 10.8252 18.4595 11.7365C18.485 11.8085 18.5015 11.864 18.512 11.9L18.524 11.9375V11.942L18.5255 11.9435C18.581 12.1307 18.7073 12.2888 18.8776 12.3844C19.0479 12.4799 19.2487 12.5053 19.4374 12.4551C19.6261 12.4049 19.7878 12.2831 19.888 12.1156C19.9883 11.948 20.0194 11.748 19.9745 11.558V11.5535L19.973 11.5475L19.967 11.528C19.941 11.4332 19.911 11.3396 19.877 11.2475C19.4921 10.1682 18.9254 9.16271 18.2015 8.27447C16.8575 6.63197 14.594 4.99997 11.003 4.99997C10.076 4.99997 9.2375 5.10797 8.4815 5.29847H8.48Z" fill="#333029"/>
</svg>
