<svg width="18" height="19" viewBox="0 0 18 19" fill="none" xmlns="http://www.w3.org/2000/svg">
<path d="M13.4313 16.0789C13.4313 16.7951 12.8849 17.3416 12.2327 17.3416H2.74972C2.07988 17.3416 1.55119 16.7762 1.55119 16.0789V5.90232C1.55119 5.20506 2.09757 4.63966 2.74972 4.63966H7.59698L9.13044 3.00013L2.74969 3C1.23382 3 0 4.30038 0 5.90229V16.0789C0 17.6996 1.23382 19 2.74969 19H12.2503C13.7662 19 15 17.6996 15 16.0789V9.23795L13.4665 10.8775V16.0789L13.4313 16.0789Z" fill="#333029"/>
<path d="M13.4313 16.0789C13.4313 16.7951 12.8849 17.3416 12.2327 17.3416H2.74972C2.07988 17.3416 1.55119 16.7762 1.55119 16.0789V5.90232C1.55119 5.20506 2.09757 4.63966 2.74972 4.63966H7.59698L9.13044 3.00013L2.74969 3C1.23382 3 0 4.30038 0 5.90229V16.0789C0 17.6996 1.23382 19 2.74969 19H12.2503C13.7662 19 15 17.6996 15 16.0789V9.23795L13.4665 10.8775V16.0789L13.4313 16.0789Z" stroke="white"/>
<path d="M14.9788 0.509843L17.5066 3.01408L17.5299 3.03737C17.7816 3.28886 17.9176 3.63717 17.8982 4.00598L17.898 4.00597V4.01122C17.898 4.36221 17.7613 4.71229 17.5091 4.96421L8.11819 14.3446C7.8851 14.5774 7.57373 14.7139 7.24186 14.7333L7.24159 14.7333L4.52564 14.9H4.4451C4.09363 14.9 3.7431 14.7634 3.4909 14.5115C3.22004 14.2409 3.08239 13.8517 3.1018 13.4597C3.10181 13.4595 3.10182 13.4593 3.10183 13.4591L3.26911 10.7654L3.26913 10.765C3.28857 10.4336 3.42516 10.1226 3.65824 9.88983L13.07 0.488566C13.0701 0.48856 13.0701 0.488554 13.0701 0.488548C13.3228 0.236233 13.6527 0.1 14.0243 0.1C14.3721 0.1 14.7237 0.255008 14.9785 0.509552L14.9788 0.509843ZM11.6688 4.33744L11.5983 4.26701L11.5276 4.33728L6.82172 9.01703L6.75058 9.08778L6.82157 9.15869L8.85034 11.1852L8.92085 11.2556L8.99152 11.1853L13.6974 6.5056L13.7686 6.43485L13.6976 6.36394L11.6688 4.33744ZM7.00262 13.1363L7.04058 13.1341L7.06749 13.1072L7.67393 12.5014L7.74475 12.4307L7.67393 12.3599L5.64515 10.3334L5.57448 10.2628L5.50381 10.3334L4.89735 10.9392L4.8704 10.9661L4.86819 11.0041L4.74272 13.156L4.73618 13.2682L4.84836 13.2616L7.00262 13.1363ZM14.8321 5.18926L14.9015 5.25855L14.9721 5.19056L16.1224 4.08345L16.1959 4.01273L16.1238 3.94065L14.095 1.91415L14.0243 1.84356L13.9536 1.91415L12.8243 3.04223L12.7535 3.11298L12.8243 3.18373L14.8321 5.18926Z" fill="#333029" stroke="white" stroke-width="0.2"/>
</svg>
