<svg width="12" height="9" viewBox="0 0 12 9" fill="none" xmlns="http://www.w3.org/2000/svg">
<path d="M10.9523 0H1.04758C0.836864 0 0.666626 0.170238 0.666626 0.380952V8C0.666626 8.21071 0.836864 8.38095 1.04758 8.38095H10.9523C11.1631 8.38095 11.3333 8.21071 11.3333 8V0.380952C11.3333 0.170238 11.1631 0 10.9523 0ZM10.4761 1.31905V7.52381H1.52377V1.31905L1.1952 1.0631L1.66305 0.461905L2.17258 0.858333H9.82853L10.3381 0.461905L10.8059 1.0631L10.4761 1.31905ZM9.82853 0.857143L5.99996 3.83333L2.17139 0.857143L1.66186 0.460714L1.19401 1.0619L1.52258 1.31786L5.58924 4.47976C5.7062 4.57062 5.85008 4.61994 5.99817 4.61994C6.14627 4.61994 6.29015 4.57062 6.4071 4.47976L10.4761 1.31905L10.8047 1.0631L10.3369 0.461905L9.82853 0.857143Z" fill="#333029"/>
</svg>
