<svg width="22" height="26" viewBox="0 0 22 26" fill="none" xmlns="http://www.w3.org/2000/svg">
<path d="M18.775 17.9219V17.9633L18.8043 17.9926L21.4 20.5883V21.7594H0.6V20.5883L3.19571 17.9926L3.225 17.9633V17.9219V11.3594C3.225 7.35193 5.3558 4.04105 9.05438 3.16166L9.13125 3.14339V3.06437V2.17188C9.13125 1.13773 9.96585 0.303125 11 0.303125C12.0341 0.303125 12.8687 1.13773 12.8687 2.17188V3.06437V3.14345L12.9457 3.16168C16.6571 4.04104 18.775 7.36478 18.775 11.3594V17.9219ZM16.25 19.3344H16.35V19.2344V11.3594C16.35 9.71226 15.8486 8.21166 14.9269 7.12108C14.0039 6.02888 12.6635 5.35313 11 5.35313C9.33653 5.35313 7.99608 6.02888 7.07307 7.12108C6.15143 8.21166 5.65 9.71226 5.65 11.3594V19.2344V19.3344H5.75H16.25ZM13.523 23.2719C13.47 24.6145 12.355 25.6969 11 25.6969C9.64496 25.6969 8.52996 24.6145 8.47697 23.2719H13.523Z" fill="#333029" stroke="#F3F3F7" stroke-width="0.2"/>
</svg>
