<svg width="16" height="16" viewBox="0 0 16 16" fill="none" xmlns="http://www.w3.org/2000/svg">
<path d="M8 6.00341C8.70725 6.00341 9.38552 6.28437 9.88562 6.78446C10.3857 7.28456 10.6667 7.96284 10.6667 8.67008C10.6667 9.37733 10.3857 10.0556 9.88562 10.5557C9.38552 11.0558 8.70725 11.3367 8 11.3367C7.29276 11.3367 6.61448 11.0558 6.11438 10.5557C5.61429 10.0556 5.33334 9.37733 5.33334 8.67008C5.33334 7.96284 5.61429 7.28456 6.11438 6.78446C6.61448 6.28437 7.29276 6.00341 8 6.00341V6.00341ZM8 3.66675C11.0753 3.66675 13.7307 5.76675 14.4673 8.70941C14.4996 8.83804 14.4795 8.97422 14.4113 9.088C14.3432 9.20177 14.2326 9.28381 14.104 9.31608C13.9754 9.34835 13.8392 9.3282 13.7254 9.26006C13.6116 9.19192 13.5296 9.08138 13.4973 8.95275C13.1887 7.72839 12.4801 6.64212 11.484 5.86617C10.4879 5.09022 9.26129 4.669 7.99863 4.66931C6.73597 4.66961 5.50954 5.09142 4.51382 5.86786C3.5181 6.64429 2.81007 7.73091 2.502 8.95541C2.48611 9.01915 2.45782 9.07913 2.41875 9.13193C2.37968 9.18474 2.33059 9.22933 2.27429 9.26316C2.21799 9.29699 2.15557 9.3194 2.09061 9.32911C2.02564 9.33882 1.9594 9.33564 1.89567 9.31975C1.83193 9.30386 1.77195 9.27557 1.71915 9.2365C1.66635 9.19743 1.62176 9.14834 1.58793 9.09204C1.5541 9.03573 1.53168 8.97332 1.52197 8.90835C1.51226 8.84339 1.51545 8.77715 1.53134 8.71341C1.89288 7.27161 2.72577 5.99193 3.89774 5.07759C5.0697 4.16326 6.51356 3.66669 8 3.66675V3.66675Z" fill="#333029"/>
</svg>
