<svg width="16" height="16" viewBox="0 0 16 16" fill="none" xmlns="http://www.w3.org/2000/svg">
<path d="M8 1C4.1339 1 1 4.1339 1 8C1 11.8661 4.1339 15 8 15C11.8661 15 15 11.8661 15 8C15 4.1339 11.8661 1 8 1Z" stroke="#595959" stroke-width="1.1" stroke-linecap="round" stroke-linejoin="round"/>
<path d="M3 12C3 12 4.44188 10.1558 7.99968 10.1558C11.5575 10.1558 13 12 13 12M7.99968 7.8879C8.51436 7.8879 9.00796 7.68309 9.3719 7.31853C9.73584 6.95397 9.94029 6.45952 9.94029 5.94395C9.94029 5.42838 9.73584 4.93393 9.3719 4.56937C9.00796 4.20481 8.51436 4 7.99968 4C7.48499 4 6.99139 4.20481 6.62745 4.56937C6.26352 4.93393 6.05906 5.42838 6.05906 5.94395C6.05906 6.45952 6.26352 6.95397 6.62745 7.31853C6.99139 7.68309 7.48499 7.8879 7.99968 7.8879Z" stroke="#595959" stroke-width="1.1" stroke-linecap="round" stroke-linejoin="round"/>
</svg>
