<svg width="20" height="16" viewBox="0 0 20 16" fill="none" xmlns="http://www.w3.org/2000/svg">
<path d="M4.288 0.292937L0.292997 4.29294L0.208997 4.38794C0.0598744 4.58046 -0.0138729 4.82078 0.00159262 5.06381C0.0170581 5.30684 0.120673 5.53587 0.292997 5.70794L0.387997 5.79094C0.580519 5.94006 0.82084 6.01381 1.06387 5.99834C1.3069 5.98288 1.53593 5.87926 1.708 5.70694L4 3.40994V14.9999L4.007 15.1169C4.03543 15.3604 4.15226 15.5849 4.33532 15.7478C4.51838 15.9108 4.75491 16.0009 5 16.0009L5.117 15.9939C5.36042 15.9653 5.58483 15.8482 5.74761 15.6649C5.9104 15.4817 6.00021 15.245 6 14.9999V3.41694L8.293 5.70694L8.388 5.79094C8.58901 5.94826 8.84258 6.02275 9.09674 5.99915C9.35091 5.97556 9.58643 5.85566 9.75505 5.66403C9.92367 5.47239 10.0126 5.22353 10.0037 4.96843C9.99476 4.71333 9.88861 4.4713 9.707 4.29194L5.701 0.291936L5.607 0.208937C5.41448 0.0598136 5.17416 -0.0139339 4.93113 0.00153158C4.6881 0.0169971 4.45906 0.120613 4.287 0.292937H4.288ZM15 0.00293634L14.883 0.00993679C14.6397 0.038594 14.4155 0.155529 14.2527 0.338564C14.09 0.521599 14 0.758003 14 1.00294V12.5829L11.707 10.2929L11.612 10.2089C11.4109 10.0535 11.1582 9.98038 10.9051 10.0046C10.6521 10.0288 10.4178 10.1484 10.2498 10.3392C10.0818 10.53 9.99278 10.7776 10.0008 11.0316C10.0088 11.2857 10.1133 11.5271 10.293 11.7069L14.297 15.7069L14.391 15.7909C14.5835 15.9401 14.8238 16.0138 15.0669 15.9983C15.3099 15.9829 15.5389 15.8793 15.711 15.7069L19.707 11.7069L19.791 11.6119C19.9401 11.4194 20.0139 11.1791 19.9984 10.9361C19.9829 10.693 19.8793 10.464 19.707 10.2919L19.612 10.2089C19.4195 10.0598 19.1792 9.98607 18.9361 10.0015C18.6931 10.017 18.4641 10.1206 18.292 10.2929L16 12.5869V1.00294L15.993 0.886937C15.9646 0.643505 15.8477 0.418989 15.6647 0.256025C15.4816 0.0930614 15.2451 0.00299742 15 0.00293634Z" fill="black"/>
</svg>
