<?xml version="1.0" encoding="utf-8"?>
<!-- Generator: Adobe Illustrator 24.3.0, SVG Export Plug-In . SVG Version: 6.00 Build 0)  -->
<svg version="1.1" id="Layer_1" xmlns="http://www.w3.org/2000/svg" xmlns:xlink="http://www.w3.org/1999/xlink" x="0px" y="0px"
	 viewBox="0 0 72 72" style="enable-background:new 0 0 72 72;" width="240" height="240" xml:space="preserve">
<style type="text/css">
	.st0{fill:#F0BC5E;}
	.st1{fill:#2B597F;}
</style>
<g>
	<g>
		<path class="st0" d="M28.9,21.8H17.1c-0.4,0-0.7-0.3-0.7-0.7V9.4c0-0.4,0.3-0.7,0.7-0.7h11.8c0.4,0,0.7,0.3,0.7,0.7v11.8
			C29.6,21.5,29.3,21.8,28.9,21.8z"/>
		<g>
			<path class="st1" d="M49.4,21.1h-15c-0.6,0-1-0.5-1-1s0.5-1,1-1h15c0.6,0,1,0.5,1,1S50,21.1,49.4,21.1z"/>
			<path class="st1" d="M40.5,30.4H25.3c-0.6,0-1-0.5-1-1s0.5-1,1-1h15.2c0.6,0,1,0.5,1,1S41.1,30.4,40.5,30.4z"/>
			<path class="st1" d="M49.4,16.3h-15c-0.6,0-1-0.5-1-1s0.5-1,1-1h15c0.6,0,1,0.5,1,1S50,16.3,49.4,16.3z"/>
			<path class="st1" d="M49.4,11.5h-15c-0.6,0-1-0.5-1-1s0.5-1,1-1h15c0.6,0,1,0.5,1,1S50,11.5,49.4,11.5z"/>
			<path class="st1" d="M49.4,42.6h-33c-0.6,0-1-0.5-1-1s0.5-1,1-1h32.9c0.6,0,1,0.5,1,1S50,42.6,49.4,42.6z"/>
			<path class="st1" d="M49.4,36.4H31.5c-0.6,0-1-0.5-1-1s0.5-1,1-1h17.9c0.6,0,1,0.5,1,1S50,36.4,49.4,36.4z"/>
			<path class="st1" d="M26.7,36.4H16.4c-0.6,0-1-0.5-1-1s0.5-1,1-1h10.3c0.6,0,1,0.5,1,1S27.3,36.4,26.7,36.4z"/>
			<path class="st0" d="M47.5,58.4H13c-3.8,0-6.8-3.1-6.8-6.8v-1.8c0-0.4,0.3-0.7,0.7-0.7H11l0,0h29c0.4,0,0.7,0.3,0.7,0.7v1.8
				C40.7,55.3,43.7,58.3,47.5,58.4z"/>
		</g>
	</g>
	<g>
		<path d="M65.8,12.6H61V7.8c0-0.6-0.5-1-1-1h-4.8V2c0-0.6-0.5-1-1-1H11.7c-0.6,0-1,0.5-1,1v46H6.2c-0.6,0-1,0.5-1,1v2.5
			c0,4.3,3.5,7.9,7.9,7.9h3.4v4.8c0,0.6,0.5,1,1,1h4.8V70c0,0.6,0.5,1,1,1H54c0.6,0,1-0.5,1-1s-0.5-1-1-1H24.3v-3.8H60
			c0.6,0,1-0.5,1-1V48c0-0.6-0.5-1-1-1s-1,0.5-1,1v15.1H18.5v-3.8h35.7c0.6,0,1-0.5,1-1V8.9H59v49.7c0,0.6,0.5,1,1,1s1-0.5,1-1V14.7
			h3.8V69H48.5c-0.6,0-1,0.5-1,1s0.5,1,1,1h17.3c0.6,0,1-0.5,1-1V13.6C66.8,13.1,66.4,12.6,65.8,12.6z M53.2,57.3h-5.7
			c-3.2,0-5.8-2.6-5.8-5.8V49c0-0.6-0.5-1-1-1H23.5c-0.6,0-1,0.5-1,1s0.5,1,1,1h16.2v1.4c0,2.3,1,4.4,2.6,5.8H13
			c-3.2,0-5.8-2.6-5.8-5.8V50h21.5c0.6,0,1-0.5,1-1s-0.5-1-1-1h-16V3h40.5V57.3z"/>
		<path d="M16.4,22.9h13.1c0.6,0,1-0.5,1-1V8.7c0-0.6-0.5-1-1-1H16.4c-0.6,0-1,0.5-1,1v13.1C15.4,22.4,15.9,22.9,16.4,22.9z
			 M17.5,9.8h11.1v11.1H17.5V9.8z"/>
		<path d="M49.4,19h-15c-0.6,0-1,0.5-1,1s0.5,1,1,1h15c0.6,0,1-0.5,1-1S50,19,49.4,19z"/>
		<path d="M24.3,29.4c0,0.6,0.5,1,1,1h15.2c0.6,0,1-0.5,1-1s-0.5-1-1-1H25.3C24.8,28.3,24.3,28.8,24.3,29.4z"/>
		<path d="M49.4,14.3h-15c-0.6,0-1,0.5-1,1s0.5,1,1,1h15c0.6,0,1-0.5,1-1S50,14.3,49.4,14.3z"/>
		<path d="M49.4,9.5h-15c-0.6,0-1,0.5-1,1s0.5,1,1,1h15c0.6,0,1-0.5,1-1S50,9.5,49.4,9.5z"/>
		<path d="M49.4,40.5h-33c-0.6,0-1,0.5-1,1s0.5,1,1,1h32.9c0.6,0,1-0.5,1-1S50,40.5,49.4,40.5z"/>
		<path d="M49.4,34.4H31.5c-0.6,0-1,0.5-1,1s0.5,1,1,1h17.9c0.6,0,1-0.5,1-1S50,34.4,49.4,34.4z"/>
		<path d="M16.4,36.4h10.3c0.6,0,1-0.5,1-1s-0.5-1-1-1H16.4c-0.6,0-1,0.5-1,1S15.8,36.4,16.4,36.4z"/>
	</g>
</g>
</svg>
